<svg xmlns="http://www.w3.org/2000/svg" xmlns:xlink="http://www.w3.org/1999/xlink" width="400" zoomAndPan="magnify" viewBox="0 0 300 299.999988" height="400" preserveAspectRatio="xMidYMid meet" version="1.0"><defs><g/><clipPath id="2d6e4ef059"><path d="M 88.6875 24.035156 L 199.6875 24.035156 L 199.6875 103.535156 L 88.6875 103.535156 Z M 88.6875 24.035156 " clip-rule="nonzero"/></clipPath><clipPath id="587801542d"><path d="M 158.042969 48.328125 C 157.339844 39.730469 153.125 31.710938 145.976562 25.523438 L 144.253906 24.035156 L 142.535156 25.523438 C 135.386719 31.710938 131.171875 39.730469 130.46875 48.328125 L 88.816406 48.328125 L 88.816406 50.964844 C 88.816406 66.648438 103.769531 79.40625 122.148438 79.40625 C 126.472656 79.40625 130.601562 78.691406 134.398438 77.410156 C 130.660156 81.199219 125.402344 88.695312 125.402344 100.898438 L 125.402344 103.535156 L 162.964844 103.535156 L 162.964844 100.898438 C 162.964844 88.699219 157.707031 81.199219 153.96875 77.410156 C 157.765625 78.691406 161.894531 79.40625 166.21875 79.40625 C 184.601562 79.40625 199.554688 66.648438 199.554688 50.964844 L 199.554688 48.328125 Z M 144.183594 65.292969 C 141.03125 62 138.9375 57.988281 138.332031 53.601562 L 150.039062 53.601562 C 149.433594 57.988281 147.335938 62 144.183594 65.292969 Z M 144.253906 31.109375 C 149.164062 35.988281 152.117188 41.941406 152.761719 48.257812 L 135.75 48.257812 C 136.394531 41.941406 139.34375 35.988281 144.253906 31.109375 Z M 94.261719 53.601562 L 133.035156 53.601562 C 133.652344 59.28125 136.230469 64.476562 140.1875 68.695312 C 135.304688 72.085938 129.011719 74.128906 122.148438 74.128906 C 107.753906 74.128906 95.851562 65.140625 94.261719 53.601562 Z M 130.765625 98.261719 C 131.515625 88.160156 136.46875 82.492188 139.1875 80.113281 C 139.683594 80.550781 140.253906 81.097656 140.863281 81.761719 C 138.3125 85.585938 135.960938 91.003906 135.492188 98.261719 Z M 140.761719 98.261719 C 141.132812 93.265625 142.535156 89.355469 144.183594 86.390625 C 145.832031 89.355469 147.234375 93.265625 147.609375 98.261719 Z M 152.878906 98.261719 C 152.410156 91.007812 150.054688 85.585938 147.503906 81.761719 C 148.113281 81.097656 148.6875 80.550781 149.183594 80.113281 C 151.898438 82.496094 156.855469 88.167969 157.605469 98.261719 Z M 144.183594 77.628906 C 142.617188 76.003906 141.289062 75.015625 140.679688 74.59375 C 141.910156 73.890625 143.078125 73.113281 144.183594 72.28125 C 145.292969 73.113281 146.460938 73.890625 147.691406 74.59375 C 147.078125 75.015625 145.75 76.007812 144.183594 77.628906 Z M 166.21875 74.128906 C 159.355469 74.128906 153.066406 72.082031 148.183594 68.695312 C 152.140625 64.476562 154.71875 59.28125 155.335938 53.601562 L 194.109375 53.601562 C 192.515625 65.140625 180.617188 74.128906 166.21875 74.128906 Z M 166.21875 74.128906 " clip-rule="nonzero"/></clipPath><linearGradient x1="-0.0000151887" gradientTransform="matrix(0.283152, 0, 0, 0.283827, 88.816805, 24.034089)" y1="140.054993" x2="391.083953" gradientUnits="userSpaceOnUse" y2="140.054993" id="54f7971e3b"><stop stop-opacity="1" stop-color="rgb(45.098877%, 45.098877%, 45.098877%)" offset="0"/><stop stop-opacity="1" stop-color="rgb(45.3125%, 45.3125%, 45.3125%)" offset="0.00390625"/><stop stop-opacity="1" stop-color="rgb(45.527649%, 45.527649%, 45.527649%)" offset="0.0078125"/><stop stop-opacity="1" stop-color="rgb(45.741272%, 45.741272%, 45.741272%)" offset="0.0117187"/><stop stop-opacity="1" stop-color="rgb(45.956421%, 45.956421%, 45.956421%)" offset="0.015625"/><stop stop-opacity="1" stop-color="rgb(46.170044%, 46.170044%, 46.170044%)" offset="0.0195312"/><stop stop-opacity="1" stop-color="rgb(46.385193%, 46.385193%, 46.385193%)" offset="0.0234375"/><stop stop-opacity="1" stop-color="rgb(46.600342%, 46.600342%, 46.600342%)" offset="0.0273437"/><stop stop-opacity="1" stop-color="rgb(46.815491%, 46.815491%, 46.815491%)" offset="0.03125"/><stop stop-opacity="1" stop-color="rgb(47.029114%, 47.029114%, 47.029114%)" offset="0.0351562"/><stop stop-opacity="1" stop-color="rgb(47.244263%, 47.244263%, 47.244263%)" offset="0.0390625"/><stop stop-opacity="1" stop-color="rgb(47.457886%, 47.457886%, 47.457886%)" offset="0.0429687"/><stop stop-opacity="1" stop-color="rgb(47.673035%, 47.673035%, 47.673035%)" offset="0.046875"/><stop stop-opacity="1" stop-color="rgb(47.886658%, 47.886658%, 47.886658%)" offset="0.0507812"/><stop stop-opacity="1" stop-color="rgb(48.101807%, 48.101807%, 48.101807%)" offset="0.0546875"/><stop stop-opacity="1" stop-color="rgb(48.31543%, 48.31543%, 48.31543%)" offset="0.0585937"/><stop stop-opacity="1" stop-color="rgb(48.530579%, 48.530579%, 48.530579%)" offset="0.0625"/><stop stop-opacity="1" stop-color="rgb(48.744202%, 48.744202%, 48.744202%)" offset="0.0664062"/><stop stop-opacity="1" stop-color="rgb(48.959351%, 48.959351%, 48.959351%)" offset="0.0703125"/><stop stop-opacity="1" stop-color="rgb(49.172974%, 49.172974%, 49.172974%)" offset="0.0742187"/><stop stop-opacity="1" stop-color="rgb(49.388123%, 49.388123%, 49.388123%)" offset="0.078125"/><stop stop-opacity="1" stop-color="rgb(49.601746%, 49.601746%, 49.601746%)" offset="0.0820312"/><stop stop-opacity="1" stop-color="rgb(49.816895%, 49.816895%, 49.816895%)" offset="0.0859375"/><stop stop-opacity="1" stop-color="rgb(50.030518%, 50.030518%, 50.030518%)" offset="0.0898437"/><stop stop-opacity="1" stop-color="rgb(50.245667%, 50.245667%, 50.245667%)" offset="0.09375"/><stop stop-opacity="1" stop-color="rgb(50.45929%, 50.45929%, 50.45929%)" offset="0.0976562"/><stop stop-opacity="1" stop-color="rgb(50.674438%, 50.674438%, 50.674438%)" offset="0.101562"/><stop stop-opacity="1" stop-color="rgb(50.888062%, 50.888062%, 50.888062%)" offset="0.105469"/><stop stop-opacity="1" stop-color="rgb(51.10321%, 51.10321%, 51.10321%)" offset="0.109375"/><stop stop-opacity="1" stop-color="rgb(51.318359%, 51.318359%, 51.318359%)" offset="0.113281"/><stop stop-opacity="1" stop-color="rgb(51.533508%, 51.533508%, 51.533508%)" offset="0.117187"/><stop stop-opacity="1" stop-color="rgb(51.747131%, 51.747131%, 51.747131%)" offset="0.121094"/><stop stop-opacity="1" stop-color="rgb(51.96228%, 51.96228%, 51.96228%)" offset="0.125"/><stop stop-opacity="1" stop-color="rgb(52.175903%, 52.175903%, 52.175903%)" offset="0.128906"/><stop stop-opacity="1" stop-color="rgb(52.391052%, 52.391052%, 52.391052%)" offset="0.132812"/><stop stop-opacity="1" stop-color="rgb(52.604675%, 52.604675%, 52.604675%)" offset="0.136719"/><stop stop-opacity="1" stop-color="rgb(52.819824%, 52.819824%, 52.819824%)" offset="0.140625"/><stop stop-opacity="1" stop-color="rgb(53.033447%, 53.033447%, 53.033447%)" offset="0.144531"/><stop stop-opacity="1" stop-color="rgb(53.248596%, 53.248596%, 53.248596%)" offset="0.148437"/><stop stop-opacity="1" stop-color="rgb(53.462219%, 53.462219%, 53.462219%)" offset="0.152344"/><stop stop-opacity="1" stop-color="rgb(53.677368%, 53.677368%, 53.677368%)" offset="0.15625"/><stop stop-opacity="1" stop-color="rgb(53.890991%, 53.890991%, 53.890991%)" offset="0.160156"/><stop stop-opacity="1" stop-color="rgb(54.10614%, 54.10614%, 54.10614%)" offset="0.164062"/><stop stop-opacity="1" stop-color="rgb(54.319763%, 54.319763%, 54.319763%)" offset="0.167969"/><stop stop-opacity="1" stop-color="rgb(54.534912%, 54.534912%, 54.534912%)" offset="0.171875"/><stop stop-opacity="1" stop-color="rgb(54.748535%, 54.748535%, 54.748535%)" offset="0.175781"/><stop stop-opacity="1" stop-color="rgb(54.963684%, 54.963684%, 54.963684%)" offset="0.179687"/><stop stop-opacity="1" stop-color="rgb(55.177307%, 55.177307%, 55.177307%)" offset="0.183594"/><stop stop-opacity="1" stop-color="rgb(55.392456%, 55.392456%, 55.392456%)" offset="0.1875"/><stop stop-opacity="1" stop-color="rgb(55.606079%, 55.606079%, 55.606079%)" offset="0.191406"/><stop stop-opacity="1" stop-color="rgb(55.821228%, 55.821228%, 55.821228%)" offset="0.195312"/><stop stop-opacity="1" stop-color="rgb(56.036377%, 56.036377%, 56.036377%)" offset="0.199219"/><stop stop-opacity="1" stop-color="rgb(56.251526%, 56.251526%, 56.251526%)" offset="0.203125"/><stop stop-opacity="1" stop-color="rgb(56.465149%, 56.465149%, 56.465149%)" offset="0.207031"/><stop stop-opacity="1" stop-color="rgb(56.680298%, 56.680298%, 56.680298%)" offset="0.210937"/><stop stop-opacity="1" stop-color="rgb(56.893921%, 56.893921%, 56.893921%)" offset="0.214844"/><stop stop-opacity="1" stop-color="rgb(57.10907%, 57.10907%, 57.10907%)" offset="0.21875"/><stop stop-opacity="1" stop-color="rgb(57.322693%, 57.322693%, 57.322693%)" offset="0.222656"/><stop stop-opacity="1" stop-color="rgb(57.537842%, 57.537842%, 57.537842%)" offset="0.226562"/><stop stop-opacity="1" stop-color="rgb(57.751465%, 57.751465%, 57.751465%)" offset="0.230469"/><stop stop-opacity="1" stop-color="rgb(57.966614%, 57.966614%, 57.966614%)" offset="0.234375"/><stop stop-opacity="1" stop-color="rgb(58.180237%, 58.180237%, 58.180237%)" offset="0.238281"/><stop stop-opacity="1" stop-color="rgb(58.395386%, 58.395386%, 58.395386%)" offset="0.242187"/><stop stop-opacity="1" stop-color="rgb(58.609009%, 58.609009%, 58.609009%)" offset="0.246094"/><stop stop-opacity="1" stop-color="rgb(58.824158%, 58.824158%, 58.824158%)" offset="0.25"/><stop stop-opacity="1" stop-color="rgb(59.037781%, 59.037781%, 59.037781%)" offset="0.253906"/><stop stop-opacity="1" stop-color="rgb(59.25293%, 59.25293%, 59.25293%)" offset="0.257812"/><stop stop-opacity="1" stop-color="rgb(59.466553%, 59.466553%, 59.466553%)" offset="0.261719"/><stop stop-opacity="1" stop-color="rgb(59.681702%, 59.681702%, 59.681702%)" offset="0.265625"/><stop stop-opacity="1" stop-color="rgb(59.895325%, 59.895325%, 59.895325%)" offset="0.269531"/><stop stop-opacity="1" stop-color="rgb(60.110474%, 60.110474%, 60.110474%)" offset="0.273438"/><stop stop-opacity="1" stop-color="rgb(60.324097%, 60.324097%, 60.324097%)" offset="0.277344"/><stop stop-opacity="1" stop-color="rgb(60.539246%, 60.539246%, 60.539246%)" offset="0.28125"/><stop stop-opacity="1" stop-color="rgb(60.752869%, 60.752869%, 60.752869%)" offset="0.285156"/><stop stop-opacity="1" stop-color="rgb(60.968018%, 60.968018%, 60.968018%)" offset="0.289062"/><stop stop-opacity="1" stop-color="rgb(61.183167%, 61.183167%, 61.183167%)" offset="0.292969"/><stop stop-opacity="1" stop-color="rgb(61.398315%, 61.398315%, 61.398315%)" offset="0.296875"/><stop stop-opacity="1" stop-color="rgb(61.611938%, 61.611938%, 61.611938%)" offset="0.300781"/><stop stop-opacity="1" stop-color="rgb(61.827087%, 61.827087%, 61.827087%)" offset="0.304688"/><stop stop-opacity="1" stop-color="rgb(62.04071%, 62.04071%, 62.04071%)" offset="0.308594"/><stop stop-opacity="1" stop-color="rgb(62.255859%, 62.255859%, 62.255859%)" offset="0.3125"/><stop stop-opacity="1" stop-color="rgb(62.469482%, 62.469482%, 62.469482%)" offset="0.316406"/><stop stop-opacity="1" stop-color="rgb(62.684631%, 62.684631%, 62.684631%)" offset="0.320312"/><stop stop-opacity="1" stop-color="rgb(62.898254%, 62.898254%, 62.898254%)" offset="0.324219"/><stop stop-opacity="1" stop-color="rgb(63.113403%, 63.113403%, 63.113403%)" offset="0.328125"/><stop stop-opacity="1" stop-color="rgb(63.327026%, 63.327026%, 63.327026%)" offset="0.332031"/><stop stop-opacity="1" stop-color="rgb(63.542175%, 63.542175%, 63.542175%)" offset="0.335938"/><stop stop-opacity="1" stop-color="rgb(63.755798%, 63.755798%, 63.755798%)" offset="0.339844"/><stop stop-opacity="1" stop-color="rgb(63.970947%, 63.970947%, 63.970947%)" offset="0.34375"/><stop stop-opacity="1" stop-color="rgb(64.18457%, 64.18457%, 64.18457%)" offset="0.347656"/><stop stop-opacity="1" stop-color="rgb(64.399719%, 64.399719%, 64.399719%)" offset="0.351562"/><stop stop-opacity="1" stop-color="rgb(64.613342%, 64.613342%, 64.613342%)" offset="0.355469"/><stop stop-opacity="1" stop-color="rgb(64.828491%, 64.828491%, 64.828491%)" offset="0.359375"/><stop stop-opacity="1" stop-color="rgb(65.042114%, 65.042114%, 65.042114%)" offset="0.363281"/><stop stop-opacity="1" stop-color="rgb(65.257263%, 65.257263%, 65.257263%)" offset="0.367188"/><stop stop-opacity="1" stop-color="rgb(65.470886%, 65.470886%, 65.470886%)" offset="0.371094"/><stop stop-opacity="1" stop-color="rgb(65.686035%, 65.686035%, 65.686035%)" offset="0.375"/><stop stop-opacity="1" stop-color="rgb(65.901184%, 65.901184%, 65.901184%)" offset="0.378906"/><stop stop-opacity="1" stop-color="rgb(66.116333%, 66.116333%, 66.116333%)" offset="0.382812"/><stop stop-opacity="1" stop-color="rgb(66.329956%, 66.329956%, 66.329956%)" offset="0.386719"/><stop stop-opacity="1" stop-color="rgb(66.545105%, 66.545105%, 66.545105%)" offset="0.390625"/><stop stop-opacity="1" stop-color="rgb(66.758728%, 66.758728%, 66.758728%)" offset="0.394531"/><stop stop-opacity="1" stop-color="rgb(66.973877%, 66.973877%, 66.973877%)" offset="0.398438"/><stop stop-opacity="1" stop-color="rgb(67.1875%, 67.1875%, 67.1875%)" offset="0.402344"/><stop stop-opacity="1" stop-color="rgb(67.402649%, 67.402649%, 67.402649%)" offset="0.40625"/><stop stop-opacity="1" stop-color="rgb(67.616272%, 67.616272%, 67.616272%)" offset="0.410156"/><stop stop-opacity="1" stop-color="rgb(67.831421%, 67.831421%, 67.831421%)" offset="0.414062"/><stop stop-opacity="1" stop-color="rgb(68.045044%, 68.045044%, 68.045044%)" offset="0.417969"/><stop stop-opacity="1" stop-color="rgb(68.260193%, 68.260193%, 68.260193%)" offset="0.421875"/><stop stop-opacity="1" stop-color="rgb(68.473816%, 68.473816%, 68.473816%)" offset="0.425781"/><stop stop-opacity="1" stop-color="rgb(68.688965%, 68.688965%, 68.688965%)" offset="0.429688"/><stop stop-opacity="1" stop-color="rgb(68.902588%, 68.902588%, 68.902588%)" offset="0.433594"/><stop stop-opacity="1" stop-color="rgb(69.117737%, 69.117737%, 69.117737%)" offset="0.4375"/><stop stop-opacity="1" stop-color="rgb(69.33136%, 69.33136%, 69.33136%)" offset="0.441406"/><stop stop-opacity="1" stop-color="rgb(69.546509%, 69.546509%, 69.546509%)" offset="0.445312"/><stop stop-opacity="1" stop-color="rgb(69.760132%, 69.760132%, 69.760132%)" offset="0.449219"/><stop stop-opacity="1" stop-color="rgb(69.975281%, 69.975281%, 69.975281%)" offset="0.453125"/><stop stop-opacity="1" stop-color="rgb(70.188904%, 70.188904%, 70.188904%)" offset="0.457031"/><stop stop-opacity="1" stop-color="rgb(70.404053%, 70.404053%, 70.404053%)" offset="0.460938"/><stop stop-opacity="1" stop-color="rgb(70.619202%, 70.619202%, 70.619202%)" offset="0.464844"/><stop stop-opacity="1" stop-color="rgb(70.834351%, 70.834351%, 70.834351%)" offset="0.46875"/><stop stop-opacity="1" stop-color="rgb(71.047974%, 71.047974%, 71.047974%)" offset="0.472656"/><stop stop-opacity="1" stop-color="rgb(71.263123%, 71.263123%, 71.263123%)" offset="0.476562"/><stop stop-opacity="1" stop-color="rgb(71.476746%, 71.476746%, 71.476746%)" offset="0.480469"/><stop stop-opacity="1" stop-color="rgb(71.691895%, 71.691895%, 71.691895%)" offset="0.484375"/><stop stop-opacity="1" stop-color="rgb(71.905518%, 71.905518%, 71.905518%)" offset="0.488281"/><stop stop-opacity="1" stop-color="rgb(72.120667%, 72.120667%, 72.120667%)" offset="0.492188"/><stop stop-opacity="1" stop-color="rgb(72.33429%, 72.33429%, 72.33429%)" offset="0.496094"/><stop stop-opacity="1" stop-color="rgb(72.549438%, 72.549438%, 72.549438%)" offset="0.5"/><stop stop-opacity="1" stop-color="rgb(72.763062%, 72.763062%, 72.763062%)" offset="0.503906"/><stop stop-opacity="1" stop-color="rgb(72.97821%, 72.97821%, 72.97821%)" offset="0.507812"/><stop stop-opacity="1" stop-color="rgb(73.191833%, 73.191833%, 73.191833%)" offset="0.511719"/><stop stop-opacity="1" stop-color="rgb(73.406982%, 73.406982%, 73.406982%)" offset="0.515625"/><stop stop-opacity="1" stop-color="rgb(73.620605%, 73.620605%, 73.620605%)" offset="0.519531"/><stop stop-opacity="1" stop-color="rgb(73.835754%, 73.835754%, 73.835754%)" offset="0.523438"/><stop stop-opacity="1" stop-color="rgb(74.049377%, 74.049377%, 74.049377%)" offset="0.527344"/><stop stop-opacity="1" stop-color="rgb(74.264526%, 74.264526%, 74.264526%)" offset="0.53125"/><stop stop-opacity="1" stop-color="rgb(74.478149%, 74.478149%, 74.478149%)" offset="0.535156"/><stop stop-opacity="1" stop-color="rgb(74.693298%, 74.693298%, 74.693298%)" offset="0.539062"/><stop stop-opacity="1" stop-color="rgb(74.906921%, 74.906921%, 74.906921%)" offset="0.542969"/><stop stop-opacity="1" stop-color="rgb(75.12207%, 75.12207%, 75.12207%)" offset="0.546875"/><stop stop-opacity="1" stop-color="rgb(75.335693%, 75.335693%, 75.335693%)" offset="0.550781"/><stop stop-opacity="1" stop-color="rgb(75.550842%, 75.550842%, 75.550842%)" offset="0.554688"/><stop stop-opacity="1" stop-color="rgb(75.765991%, 75.765991%, 75.765991%)" offset="0.558594"/><stop stop-opacity="1" stop-color="rgb(75.98114%, 75.98114%, 75.98114%)" offset="0.5625"/><stop stop-opacity="1" stop-color="rgb(76.194763%, 76.194763%, 76.194763%)" offset="0.566406"/><stop stop-opacity="1" stop-color="rgb(76.409912%, 76.409912%, 76.409912%)" offset="0.570312"/><stop stop-opacity="1" stop-color="rgb(76.623535%, 76.623535%, 76.623535%)" offset="0.574219"/><stop stop-opacity="1" stop-color="rgb(76.838684%, 76.838684%, 76.838684%)" offset="0.578125"/><stop stop-opacity="1" stop-color="rgb(77.052307%, 77.052307%, 77.052307%)" offset="0.582031"/><stop stop-opacity="1" stop-color="rgb(77.267456%, 77.267456%, 77.267456%)" offset="0.585938"/><stop stop-opacity="1" stop-color="rgb(77.481079%, 77.481079%, 77.481079%)" offset="0.589844"/><stop stop-opacity="1" stop-color="rgb(77.696228%, 77.696228%, 77.696228%)" offset="0.59375"/><stop stop-opacity="1" stop-color="rgb(77.909851%, 77.909851%, 77.909851%)" offset="0.597656"/><stop stop-opacity="1" stop-color="rgb(78.125%, 78.125%, 78.125%)" offset="0.601562"/><stop stop-opacity="1" stop-color="rgb(78.338623%, 78.338623%, 78.338623%)" offset="0.605469"/><stop stop-opacity="1" stop-color="rgb(78.553772%, 78.553772%, 78.553772%)" offset="0.609375"/><stop stop-opacity="1" stop-color="rgb(78.767395%, 78.767395%, 78.767395%)" offset="0.613281"/><stop stop-opacity="1" stop-color="rgb(78.982544%, 78.982544%, 78.982544%)" offset="0.617188"/><stop stop-opacity="1" stop-color="rgb(79.196167%, 79.196167%, 79.196167%)" offset="0.621094"/><stop stop-opacity="1" stop-color="rgb(79.411316%, 79.411316%, 79.411316%)" offset="0.625"/><stop stop-opacity="1" stop-color="rgb(79.624939%, 79.624939%, 79.624939%)" offset="0.628906"/><stop stop-opacity="1" stop-color="rgb(79.840088%, 79.840088%, 79.840088%)" offset="0.632812"/><stop stop-opacity="1" stop-color="rgb(80.053711%, 80.053711%, 80.053711%)" offset="0.636719"/><stop stop-opacity="1" stop-color="rgb(80.26886%, 80.26886%, 80.26886%)" offset="0.640625"/><stop stop-opacity="1" stop-color="rgb(80.484009%, 80.484009%, 80.484009%)" offset="0.644531"/><stop stop-opacity="1" stop-color="rgb(80.699158%, 80.699158%, 80.699158%)" offset="0.648438"/><stop stop-opacity="1" stop-color="rgb(80.912781%, 80.912781%, 80.912781%)" offset="0.652344"/><stop stop-opacity="1" stop-color="rgb(81.12793%, 81.12793%, 81.12793%)" offset="0.65625"/><stop stop-opacity="1" stop-color="rgb(81.341553%, 81.341553%, 81.341553%)" offset="0.660156"/><stop stop-opacity="1" stop-color="rgb(81.556702%, 81.556702%, 81.556702%)" offset="0.664062"/><stop stop-opacity="1" stop-color="rgb(81.770325%, 81.770325%, 81.770325%)" offset="0.667969"/><stop stop-opacity="1" stop-color="rgb(81.985474%, 81.985474%, 81.985474%)" offset="0.671875"/><stop stop-opacity="1" stop-color="rgb(82.199097%, 82.199097%, 82.199097%)" offset="0.675781"/><stop stop-opacity="1" stop-color="rgb(82.414246%, 82.414246%, 82.414246%)" offset="0.679688"/><stop stop-opacity="1" stop-color="rgb(82.627869%, 82.627869%, 82.627869%)" offset="0.683594"/><stop stop-opacity="1" stop-color="rgb(82.843018%, 82.843018%, 82.843018%)" offset="0.6875"/><stop stop-opacity="1" stop-color="rgb(83.056641%, 83.056641%, 83.056641%)" offset="0.691406"/><stop stop-opacity="1" stop-color="rgb(83.27179%, 83.27179%, 83.27179%)" offset="0.695312"/><stop stop-opacity="1" stop-color="rgb(83.485413%, 83.485413%, 83.485413%)" offset="0.699219"/><stop stop-opacity="1" stop-color="rgb(83.700562%, 83.700562%, 83.700562%)" offset="0.703125"/><stop stop-opacity="1" stop-color="rgb(83.914185%, 83.914185%, 83.914185%)" offset="0.707031"/><stop stop-opacity="1" stop-color="rgb(84.129333%, 84.129333%, 84.129333%)" offset="0.710938"/><stop stop-opacity="1" stop-color="rgb(84.342957%, 84.342957%, 84.342957%)" offset="0.714844"/><stop stop-opacity="1" stop-color="rgb(84.558105%, 84.558105%, 84.558105%)" offset="0.71875"/><stop stop-opacity="1" stop-color="rgb(84.771729%, 84.771729%, 84.771729%)" offset="0.722656"/><stop stop-opacity="1" stop-color="rgb(84.986877%, 84.986877%, 84.986877%)" offset="0.726562"/><stop stop-opacity="1" stop-color="rgb(85.202026%, 85.202026%, 85.202026%)" offset="0.730469"/><stop stop-opacity="1" stop-color="rgb(85.417175%, 85.417175%, 85.417175%)" offset="0.734375"/><stop stop-opacity="1" stop-color="rgb(85.630798%, 85.630798%, 85.630798%)" offset="0.738281"/><stop stop-opacity="1" stop-color="rgb(85.845947%, 85.845947%, 85.845947%)" offset="0.742188"/><stop stop-opacity="1" stop-color="rgb(86.05957%, 86.05957%, 86.05957%)" offset="0.746094"/><stop stop-opacity="1" stop-color="rgb(86.274719%, 86.274719%, 86.274719%)" offset="0.75"/><stop stop-opacity="1" stop-color="rgb(86.488342%, 86.488342%, 86.488342%)" offset="0.753906"/><stop stop-opacity="1" stop-color="rgb(86.703491%, 86.703491%, 86.703491%)" offset="0.757812"/><stop stop-opacity="1" stop-color="rgb(86.917114%, 86.917114%, 86.917114%)" offset="0.761719"/><stop stop-opacity="1" stop-color="rgb(87.132263%, 87.132263%, 87.132263%)" offset="0.765625"/><stop stop-opacity="1" stop-color="rgb(87.345886%, 87.345886%, 87.345886%)" offset="0.769531"/><stop stop-opacity="1" stop-color="rgb(87.561035%, 87.561035%, 87.561035%)" offset="0.773438"/><stop stop-opacity="1" stop-color="rgb(87.774658%, 87.774658%, 87.774658%)" offset="0.777344"/><stop stop-opacity="1" stop-color="rgb(87.989807%, 87.989807%, 87.989807%)" offset="0.78125"/><stop stop-opacity="1" stop-color="rgb(88.20343%, 88.20343%, 88.20343%)" offset="0.785156"/><stop stop-opacity="1" stop-color="rgb(88.418579%, 88.418579%, 88.418579%)" offset="0.789062"/><stop stop-opacity="1" stop-color="rgb(88.632202%, 88.632202%, 88.632202%)" offset="0.792969"/><stop stop-opacity="1" stop-color="rgb(88.847351%, 88.847351%, 88.847351%)" offset="0.796875"/><stop stop-opacity="1" stop-color="rgb(89.060974%, 89.060974%, 89.060974%)" offset="0.800781"/><stop stop-opacity="1" stop-color="rgb(89.276123%, 89.276123%, 89.276123%)" offset="0.804688"/><stop stop-opacity="1" stop-color="rgb(89.489746%, 89.489746%, 89.489746%)" offset="0.808594"/><stop stop-opacity="1" stop-color="rgb(89.704895%, 89.704895%, 89.704895%)" offset="0.8125"/><stop stop-opacity="1" stop-color="rgb(89.918518%, 89.918518%, 89.918518%)" offset="0.816406"/><stop stop-opacity="1" stop-color="rgb(90.133667%, 90.133667%, 90.133667%)" offset="0.820312"/><stop stop-opacity="1" stop-color="rgb(90.348816%, 90.348816%, 90.348816%)" offset="0.824219"/><stop stop-opacity="1" stop-color="rgb(90.563965%, 90.563965%, 90.563965%)" offset="0.828125"/><stop stop-opacity="1" stop-color="rgb(90.777588%, 90.777588%, 90.777588%)" offset="0.832031"/><stop stop-opacity="1" stop-color="rgb(90.992737%, 90.992737%, 90.992737%)" offset="0.835938"/><stop stop-opacity="1" stop-color="rgb(91.20636%, 91.20636%, 91.20636%)" offset="0.839844"/><stop stop-opacity="1" stop-color="rgb(91.421509%, 91.421509%, 91.421509%)" offset="0.84375"/><stop stop-opacity="1" stop-color="rgb(91.635132%, 91.635132%, 91.635132%)" offset="0.847656"/><stop stop-opacity="1" stop-color="rgb(91.850281%, 91.850281%, 91.850281%)" offset="0.851562"/><stop stop-opacity="1" stop-color="rgb(92.063904%, 92.063904%, 92.063904%)" offset="0.855469"/><stop stop-opacity="1" stop-color="rgb(92.279053%, 92.279053%, 92.279053%)" offset="0.859375"/><stop stop-opacity="1" stop-color="rgb(92.492676%, 92.492676%, 92.492676%)" offset="0.863281"/><stop stop-opacity="1" stop-color="rgb(92.707825%, 92.707825%, 92.707825%)" offset="0.867188"/><stop stop-opacity="1" stop-color="rgb(92.921448%, 92.921448%, 92.921448%)" offset="0.871094"/><stop stop-opacity="1" stop-color="rgb(93.136597%, 93.136597%, 93.136597%)" offset="0.875"/><stop stop-opacity="1" stop-color="rgb(93.35022%, 93.35022%, 93.35022%)" offset="0.878906"/><stop stop-opacity="1" stop-color="rgb(93.565369%, 93.565369%, 93.565369%)" offset="0.882812"/><stop stop-opacity="1" stop-color="rgb(93.778992%, 93.778992%, 93.778992%)" offset="0.886719"/><stop stop-opacity="1" stop-color="rgb(93.994141%, 93.994141%, 93.994141%)" offset="0.890625"/><stop stop-opacity="1" stop-color="rgb(94.207764%, 94.207764%, 94.207764%)" offset="0.894531"/><stop stop-opacity="1" stop-color="rgb(94.422913%, 94.422913%, 94.422913%)" offset="0.898438"/><stop stop-opacity="1" stop-color="rgb(94.636536%, 94.636536%, 94.636536%)" offset="0.902344"/><stop stop-opacity="1" stop-color="rgb(94.851685%, 94.851685%, 94.851685%)" offset="0.90625"/><stop stop-opacity="1" stop-color="rgb(95.066833%, 95.066833%, 95.066833%)" offset="0.910156"/><stop stop-opacity="1" stop-color="rgb(95.281982%, 95.281982%, 95.281982%)" offset="0.914062"/><stop stop-opacity="1" stop-color="rgb(95.495605%, 95.495605%, 95.495605%)" offset="0.917969"/><stop stop-opacity="1" stop-color="rgb(95.710754%, 95.710754%, 95.710754%)" offset="0.921875"/><stop stop-opacity="1" stop-color="rgb(95.924377%, 95.924377%, 95.924377%)" offset="0.925781"/><stop stop-opacity="1" stop-color="rgb(96.139526%, 96.139526%, 96.139526%)" offset="0.929688"/><stop stop-opacity="1" stop-color="rgb(96.353149%, 96.353149%, 96.353149%)" offset="0.933594"/><stop stop-opacity="1" stop-color="rgb(96.568298%, 96.568298%, 96.568298%)" offset="0.9375"/><stop stop-opacity="1" stop-color="rgb(96.781921%, 96.781921%, 96.781921%)" offset="0.941406"/><stop stop-opacity="1" stop-color="rgb(96.99707%, 96.99707%, 96.99707%)" offset="0.945312"/><stop stop-opacity="1" stop-color="rgb(97.210693%, 97.210693%, 97.210693%)" offset="0.949219"/><stop stop-opacity="1" stop-color="rgb(97.425842%, 97.425842%, 97.425842%)" offset="0.953125"/><stop stop-opacity="1" stop-color="rgb(97.639465%, 97.639465%, 97.639465%)" offset="0.957031"/><stop stop-opacity="1" stop-color="rgb(97.854614%, 97.854614%, 97.854614%)" offset="0.960938"/><stop stop-opacity="1" stop-color="rgb(98.068237%, 98.068237%, 98.068237%)" offset="0.964844"/><stop stop-opacity="1" stop-color="rgb(98.283386%, 98.283386%, 98.283386%)" offset="0.96875"/><stop stop-opacity="1" stop-color="rgb(98.497009%, 98.497009%, 98.497009%)" offset="0.972656"/><stop stop-opacity="1" stop-color="rgb(98.712158%, 98.712158%, 98.712158%)" offset="0.976562"/><stop stop-opacity="1" stop-color="rgb(98.925781%, 98.925781%, 98.925781%)" offset="0.980469"/><stop stop-opacity="1" stop-color="rgb(99.14093%, 99.14093%, 99.14093%)" offset="0.984375"/><stop stop-opacity="1" stop-color="rgb(99.354553%, 99.354553%, 99.354553%)" offset="0.988281"/><stop stop-opacity="1" stop-color="rgb(99.569702%, 99.569702%, 99.569702%)" offset="0.992188"/><stop stop-opacity="1" stop-color="rgb(99.783325%, 99.783325%, 99.783325%)" offset="0.996094"/><stop stop-opacity="1" stop-color="rgb(99.998474%, 99.998474%, 99.998474%)" offset="1"/></linearGradient></defs><rect x="-30" width="360" fill="#ffffff" y="-29.999999" height="359.999986" fill-opacity="1"/><rect x="-30" width="360" fill="#ffffff" y="-29.999999" height="359.999986" fill-opacity="1"/><rect x="-30" width="360" fill="#211717" y="-29.999999" height="359.999986" fill-opacity="1"/><g clip-path="url(#2d6e4ef059)"><g clip-path="url(#587801542d)"><path fill="url(#54f7971e3b)" d="M 88.816406 24.035156 L 88.816406 103.535156 L 199.554688 103.535156 L 199.554688 24.035156 Z M 88.816406 24.035156 " fill-rule="nonzero"/></g></g><path stroke-linecap="butt" transform="matrix(0.75, 0, 0, 0.75, 111.196067, 192.771049)" fill="none" stroke-linejoin="miter" d="M 1.920869 19.997978 L 16.63962 19.997978 L 18.275037 15.076102 L 18.030245 15.076102 C 17.379203 16.544853 16.353162 18.096936 14.123995 18.263603 L 2.962535 18.263603 C 6.415661 12.909436 18.17087 12.294852 18.17087 5.341727 C 18.17087 0.951101 13.936495 -0.94994 9.077119 -0.94994 C 5.868786 -0.94994 4.170869 -0.111399 4.170869 -0.111399 L 3.045869 3.852143 L 3.290661 3.852143 C 4.478161 1.11256 7.400036 -0.439524 10.056286 -0.439524 C 15.10837 -0.439524 16.025037 3.508393 16.025037 5.565685 C 16.025037 12.336519 1.920869 14.070894 1.920869 19.997978 Z M 32.58233 20.508395 C 38.035455 20.508395 40.634414 15.706311 40.634414 9.779227 C 40.634414 3.852143 38.035455 -0.94994 32.58233 -0.94994 C 27.123996 -0.94994 24.530246 3.852143 24.530246 9.779227 C 24.530246 15.706311 27.123996 20.508395 32.58233 20.508395 Z M 26.571912 9.779227 C 26.571912 4.138602 28.618788 -0.538482 32.58233 -0.538482 C 36.566705 -0.538482 38.592747 4.138602 38.592747 9.779227 C 38.592747 15.419853 36.566705 20.102145 32.58233 20.102145 C 28.618788 20.102145 26.571912 15.419853 26.571912 9.779227 Z M 46.071914 19.997978 L 60.785457 19.997978 L 62.426082 15.076102 L 62.18129 15.076102 C 61.52504 16.544853 60.504207 18.096936 58.27504 18.263603 L 47.113581 18.263603 C 50.566706 12.909436 62.321915 12.294852 62.321915 5.341727 C 62.321915 0.951101 58.08754 -0.94994 53.228165 -0.94994 C 50.019831 -0.94994 48.321914 -0.111399 48.321914 -0.111399 L 47.196914 3.852143 L 47.436497 3.852143 C 48.629206 1.11256 51.551081 -0.439524 54.207331 -0.439524 C 59.254207 -0.439524 60.176082 3.508393 60.176082 5.565685 C 60.176082 12.336519 46.071914 14.070894 46.071914 19.997978 Z M 76.077125 20.508395 C 79.941708 20.508395 84.660459 18.221936 84.660459 14.154227 C 84.660459 10.841727 82.353167 8.86256 78.139625 8.86256 C 78.139625 8.86256 83.472959 8.289644 83.472959 4.341727 C 83.472959 0.92506 80.264625 -0.94994 74.832333 -0.94994 C 71.623999 -0.94994 69.926083 -0.111399 69.926083 -0.111399 L 68.801083 3.852143 L 69.045874 3.852143 C 70.233374 1.11256 73.15525 -0.502024 75.8115 -0.502024 C 79.551083 -0.502024 81.472959 1.51881 81.472959 3.89381 C 81.472959 6.284435 79.65525 8.779227 76.426083 8.779227 C 75.691708 8.779227 74.749 8.638602 74.238583 8.471935 L 74.238583 9.352144 C 74.931291 9.164644 75.670875 9.164644 76.426083 9.164644 C 79.691708 9.164644 82.634417 9.779227 82.634417 13.888602 C 82.634417 17.221936 80.228167 19.997978 76.28025 19.997978 C 72.358374 19.997978 69.639624 16.872978 68.514624 13.602144 L 68.269832 13.602144 L 68.269832 18.320894 C 70.561499 19.425061 72.847958 20.508395 76.077125 20.508395 Z M 76.077125 20.508395 " stroke="#ffffff" stroke-width="1.533682" stroke-opacity="1" stroke-miterlimit="4"/><g fill="#ffffff" fill-opacity="1"><g transform="translate(112.637473, 207.771048)"><g><path d="M 0 0 L 11.039062 0 L 12.265625 -3.695312 L 12.078125 -3.695312 C 11.589844 -2.589844 10.824219 -1.425781 9.152344 -1.304688 L 0.78125 -1.304688 C 3.371094 -5.320312 12.1875 -5.78125 12.1875 -10.992188 C 12.1875 -14.289062 9.015625 -15.714844 5.367188 -15.714844 C 2.957031 -15.714844 1.6875 -15.085938 1.6875 -15.085938 L 0.84375 -12.109375 L 1.027344 -12.109375 C 1.917969 -14.164062 4.109375 -15.328125 6.101562 -15.328125 C 9.886719 -15.328125 10.578125 -12.371094 10.578125 -10.824219 C 10.578125 -5.75 0 -4.445312 0 0 Z M 0 0 "/></g></g></g><g fill="#ffffff" fill-opacity="1"><g transform="translate(128.672468, 207.771048)"><g><path d="M 6.960938 0.382812 C 11.054688 0.382812 13 -3.21875 13 -7.664062 C 13 -12.109375 11.054688 -15.714844 6.960938 -15.714844 C 2.867188 -15.714844 0.917969 -12.109375 0.917969 -7.664062 C 0.917969 -3.21875 2.867188 0.382812 6.960938 0.382812 Z M 2.453125 -7.664062 C 2.453125 -11.894531 3.984375 -15.40625 6.960938 -15.40625 C 9.949219 -15.40625 11.46875 -11.894531 11.46875 -7.664062 C 11.46875 -3.433594 9.949219 0.078125 6.960938 0.078125 C 3.984375 0.078125 2.453125 -3.433594 2.453125 -7.664062 Z M 2.453125 -7.664062 "/></g></g></g><g fill="#ffffff" fill-opacity="1"><g transform="translate(145.74978, 207.771048)"><g><path d="M 0 0 L 11.039062 0 L 12.265625 -3.695312 L 12.078125 -3.695312 C 11.589844 -2.589844 10.824219 -1.425781 9.152344 -1.304688 L 0.78125 -1.304688 C 3.371094 -5.320312 12.1875 -5.78125 12.1875 -10.992188 C 12.1875 -14.289062 9.015625 -15.714844 5.367188 -15.714844 C 2.957031 -15.714844 1.6875 -15.085938 1.6875 -15.085938 L 0.84375 -12.109375 L 1.027344 -12.109375 C 1.917969 -14.164062 4.109375 -15.328125 6.101562 -15.328125 C 9.886719 -15.328125 10.578125 -12.371094 10.578125 -10.824219 C 10.578125 -5.75 0 -4.445312 0 0 Z M 0 0 "/></g></g></g><g fill="#ffffff" fill-opacity="1"><g transform="translate(161.784774, 207.771048)"><g><path d="M 6.46875 0.382812 C 9.367188 0.382812 12.90625 -1.332031 12.90625 -4.382812 C 12.90625 -6.867188 11.175781 -8.355469 8.019531 -8.355469 C 8.019531 -8.355469 12.019531 -8.785156 12.019531 -11.742188 C 12.019531 -14.304688 9.613281 -15.714844 5.535156 -15.714844 C 3.128906 -15.714844 1.855469 -15.085938 1.855469 -15.085938 L 1.011719 -12.109375 L 1.195312 -12.109375 C 2.085938 -14.164062 4.277344 -15.375 6.269531 -15.375 C 9.074219 -15.375 10.515625 -13.859375 10.515625 -12.078125 C 10.515625 -10.285156 9.152344 -8.417969 6.730469 -8.417969 C 6.179688 -8.417969 5.472656 -8.523438 5.089844 -8.644531 L 5.089844 -7.988281 C 5.609375 -8.125 6.164062 -8.125 6.730469 -8.125 C 9.183594 -8.125 11.390625 -7.664062 11.390625 -4.582031 C 11.390625 -2.085938 9.582031 0 6.621094 0 C 3.679688 0 1.640625 -2.34375 0.796875 -4.796875 L 0.613281 -4.796875 L 0.613281 -1.257812 C 2.332031 -0.429688 4.046875 0.382812 6.46875 0.382812 Z M 6.46875 0.382812 "/></g></g></g><path stroke-linecap="round" transform="matrix(0.748522, -0.00490691, 0.00491649, 0.749984, 30.000004, 199.245994)" fill="none" stroke-linejoin="miter" d="M 1.498327 1.499551 L 76.18198 1.498589 " stroke="#737373" stroke-width="3" stroke-opacity="1" stroke-miterlimit="4"/><path stroke-linecap="butt" transform="matrix(2.245566, -0.0147207, 0.0147495, 2.249952, 96.011578, 199.938264)" fill="none" stroke-linejoin="miter" d="M -0.499184 -0.000133482 C -0.500496 0.199515 -0.538279 0.390244 -0.614284 0.573779 C -0.69029 0.757313 -0.799209 0.919798 -0.939301 1.061246 C -1.079382 1.200958 -1.24187 1.309272 -1.426767 1.386189 C -1.609912 1.461381 -1.801516 1.500059 -1.999826 1.500497 C -2.198125 1.4992 -2.390966 1.461479 -2.574859 1.385622 C -2.757013 1.309776 -2.919815 1.201069 -3.0598 1.061261 C -3.201512 0.919706 -3.310038 0.757534 -3.385377 0.574746 C -3.462444 0.39021 -3.499458 0.198991 -3.499886 -0.000668503 C -3.500326 -0.198592 -3.462531 -0.391058 -3.386526 -0.574592 C -3.31052 -0.758126 -3.201601 -0.920612 -3.06152 -1.060323 C -2.919689 -1.20176 -2.7572 -1.310074 -2.574055 -1.385266 C -2.390898 -1.462194 -2.199306 -1.499136 -1.999256 -1.499563 C -1.800945 -1.500002 -1.609844 -1.462293 -1.425951 -1.386435 C -1.242069 -1.308841 -1.079255 -1.201871 -0.939282 -1.060327 C -0.799298 -0.92052 -0.690772 -0.758348 -0.613705 -0.573812 C -0.538366 -0.391023 -0.499624 -0.198057 -0.499184 -0.000133482 Z M -0.499184 -0.000133482 " stroke="#737373" stroke-width="1" stroke-opacity="1" stroke-miterlimit="4"/><path stroke-linecap="round" transform="matrix(-0.752881, -0.00949643, 0.00945933, -0.74994, 263.645785, 203.270974)" fill="none" stroke-linejoin="miter" d="M 1.49919 1.498685 L 79.657262 1.498638 " stroke="#737373" stroke-width="3" stroke-opacity="1" stroke-miterlimit="4"/><path stroke-linecap="butt" transform="matrix(-2.258644, -0.0284893, 0.028378, -2.249821, 194.654009, 201.275652)" fill="none" stroke-linejoin="miter" d="M -0.500804 0.000381098 C -0.500046 0.198304 -0.537419 0.389765 -0.614649 0.574785 C -0.690173 0.758048 -0.798835 0.919158 -0.938883 1.059832 C -1.080661 1.200527 -1.241853 1.310216 -1.425961 1.38547 C -1.610046 1.462459 -1.80155 1.499609 -2.000429 1.500391 C -2.19933 1.499438 -2.390043 1.461919 -2.574319 1.386121 C -2.758594 1.310323 -2.920805 1.201257 -3.060929 1.060659 C -3.201053 0.920061 -3.310313 0.758237 -3.385273 0.573408 C -3.46194 0.390336 -3.500674 0.198103 -3.499702 0.00015841 C -3.500481 -0.1995 -3.46138 -0.390983 -3.385856 -0.574246 C -3.310333 -0.757508 -3.201693 -0.920355 -3.059915 -1.06105 C -2.919866 -1.201724 -2.758653 -1.309676 -2.574567 -1.386666 C -2.39046 -1.46192 -2.198977 -1.500806 -2.000077 -1.499852 C -1.801198 -1.500634 -1.610463 -1.461379 -1.426187 -1.385582 C -1.241911 -1.309784 -1.079701 -1.200718 -0.939577 -1.06012 C -0.799453 -0.919522 -0.690193 -0.757698 -0.613526 -0.574626 C -0.538566 -0.389797 -0.499853 -0.1993 -0.500804 0.000381098 Z M -0.500804 0.000381098 " stroke="#737373" stroke-width="1" stroke-opacity="1" stroke-miterlimit="4"/><path stroke-linecap="butt" transform="matrix(0.75, 0, 0, 0.75, 33.142331, 116.533759)" fill="none" stroke-linejoin="miter" d="M 13.075851 16.507072 C 13.075851 26.074781 19.971685 33.819574 29.867519 33.819574 C 39.758145 33.819574 41.971687 29.20499 41.971687 29.20499 L 41.971687 24.720615 L 41.581062 24.720615 C 39.862312 29.335198 36.763353 33.001865 32.107103 33.001865 C 22.64356 33.001865 15.815435 23.928948 15.815435 14.126864 C 15.815435 8.257072 19.341477 0.137279 28.773769 0.137279 C 33.065436 0.137279 37.159186 2.215404 39.200853 6.934155 L 39.596687 6.934155 L 37.815436 0.0122793 C 37.815436 0.0122793 35.044603 -0.810637 29.867519 -0.810637 C 19.971685 -0.810637 13.075851 6.934155 13.075851 16.507072 Z M 70.440439 33.819574 C 80.331065 33.819574 87.226899 26.074781 87.226899 16.507072 C 87.226899 6.934155 80.331065 -0.810637 70.440439 -0.810637 C 60.539397 -0.810637 53.648771 6.934155 53.648771 16.507072 C 53.648771 26.074781 60.539397 33.819574 70.440439 33.819574 Z M 57.112313 16.507072 C 57.112313 7.402905 62.586272 0.0122793 70.440439 0.0122793 C 78.28419 0.0122793 83.763357 7.402905 83.763357 16.507072 C 83.763357 25.606031 78.28419 33.001865 70.440439 33.001865 C 62.586272 33.001865 57.112313 25.606031 57.112313 16.507072 Z M 104.903984 33.001865 L 104.903984 32.606032 C 103.752942 32.606032 102.398775 31.850824 102.398775 29.928948 C 102.398775 27.553948 105.07065 13.309155 107.117525 4.590405 L 112.820651 19.507073 C 114.341484 23.496656 115.398776 26.564365 115.88836 27.819573 C 116.091485 28.314365 116.32586 28.64249 116.784193 28.64249 C 117.836276 28.64249 118.659193 26.434156 120.940443 26.199781 L 120.940443 25.741448 L 120.247735 25.741448 C 119.252943 25.741448 118.73211 25.210198 118.16961 23.824781 C 118.101901 23.663323 118.039401 23.496656 117.966485 23.366448 C 121.002943 16.111239 123.508152 9.184155 126.216485 1.725821 C 128.622736 13.371655 131.065444 27.319573 131.065444 29.835198 C 131.065444 31.741449 129.711277 32.606032 128.560236 32.606032 L 128.560236 33.001865 L 138.659195 33.001865 L 138.659195 32.606032 C 137.435236 32.574782 135.685236 31.350824 135.060236 28.61124 C 132.982111 19.507073 131.627944 12.444572 129.784194 2.152904 C 129.482111 0.501863 131.362319 0.402904 132.518569 0.402904 L 132.518569 0.0122793 L 127.268569 0.0122793 C 126.351902 0.0122793 125.914402 0.574779 125.721694 1.132071 C 123.112318 8.553947 120.54461 15.350822 117.601901 22.470614 C 114.674818 15.350822 112.096693 8.553947 109.492526 1.132071 C 109.294609 0.574779 108.867526 0.0122793 107.940442 0.0122793 L 103.060233 0.0122793 L 103.060233 0.402904 C 104.211275 0.402904 105.232109 0.277904 106.028984 2.090404 L 106.555025 3.314363 C 104.50815 12.413322 103.153983 19.902906 101.174817 28.61124 C 100.555025 31.350824 98.805025 32.574782 97.581066 32.606032 L 97.581066 33.001865 Z M 156.659196 33.001865 L 156.659196 32.606032 C 154.153988 32.606032 154.153988 29.772698 154.153988 28.152907 L 154.153988 13.533114 L 158.310238 13.533114 C 164.674822 13.533114 168.24253 13.204989 169.331072 16.507072 L 169.721697 16.507072 L 171.013364 12.871655 L 154.153988 12.871655 L 154.153988 0.668529 L 166.685239 0.668529 C 170.445656 0.668529 173.685239 2.053946 173.685239 5.189363 L 174.081073 5.189363 L 174.081073 0.0122793 L 148.346695 0.0122793 L 148.346695 0.402904 C 150.851904 0.402904 150.851904 3.241446 150.851904 4.85603 L 150.851904 28.152907 C 150.851904 29.772698 150.851904 32.606032 148.346695 32.606032 L 148.346695 33.001865 Z M 202.544617 33.819574 C 212.435242 33.819574 219.331076 26.074781 219.331076 16.507072 C 219.331076 6.934155 212.435242 -0.810637 202.544617 -0.810637 C 192.648782 -0.810637 185.752949 6.934155 185.752949 16.507072 C 185.752949 26.074781 192.648782 33.819574 202.544617 33.819574 Z M 189.216491 16.507072 C 189.216491 7.402905 194.695658 0.0122793 202.544617 0.0122793 C 210.393576 0.0122793 215.867534 7.402905 215.867534 16.507072 C 215.867534 25.606031 210.393576 33.001865 202.544617 33.001865 C 194.695658 33.001865 189.216491 25.606031 189.216491 16.507072 Z M 233.513369 4.85603 L 233.513369 28.152907 C 233.513369 29.772698 233.513369 32.606032 231.008161 32.606032 L 231.008161 33.001865 L 239.320661 33.001865 L 239.320661 32.606032 C 236.815453 32.606032 236.815453 29.772698 236.815453 28.152907 L 236.815453 17.731031 L 241.633161 17.731031 C 243.018578 17.856031 243.539412 18.616447 246.185245 22.642489 C 248.35712 25.975823 250.903996 30.231032 250.903996 31.189365 C 250.903996 32.309157 249.914412 32.606032 249.315454 32.606032 L 249.315454 33.001865 L 259.247746 33.001865 L 259.247746 32.606032 C 258.159204 32.606032 257.200871 32.147699 256.305038 31.350824 C 254.857121 30.059157 253.534204 27.850823 251.758162 25.283115 C 247.836287 19.606031 247.633162 18.090406 246.278995 17.731031 L 248.101912 17.731031 C 254.664413 17.731031 257.763371 13.272697 257.763371 8.684155 C 257.763371 4.29353 254.461287 0.0122793 248.164412 0.0122793 L 231.008161 0.0122793 L 231.008161 0.402904 C 233.513369 0.402904 233.513369 3.241446 233.513369 4.85603 Z M 245.690453 0.668529 C 251.565454 0.668529 254.492537 4.626863 254.492537 8.788322 C 254.492537 13.10603 251.565454 17.038322 245.789412 17.038322 L 236.815453 17.038322 L 236.815453 0.668529 Z M 268.01858 5.189363 C 268.01858 2.053946 271.252956 0.668529 275.013373 0.668529 L 278.211289 0.668529 L 278.211289 28.152907 C 278.211289 29.772698 278.211289 32.606032 275.706081 32.606032 L 275.706081 33.001865 L 284.018582 33.001865 L 284.018582 32.606032 C 281.508165 32.606032 281.508165 29.772698 281.508165 28.152907 L 281.508165 0.668529 L 284.71129 0.668529 C 288.471707 0.668529 291.706082 2.053946 291.706082 5.189363 L 292.096707 5.189363 L 292.096707 0.0122793 L 267.622747 0.0122793 L 267.622747 5.189363 Z M 268.01858 5.189363 " stroke="#808080" stroke-width="2.474272" stroke-opacity="1" stroke-miterlimit="4"/><path stroke-linecap="butt" transform="matrix(0.75, 0, 0, 0.75, 33.142331, 116.533759)" fill="none" stroke-linejoin="miter" d="M 77.070648 79.001869 L 100.492525 79.001869 L 102.737317 71.283118 L 102.336275 71.283118 C 100.2894 75.99666 95.742525 78.340411 91.456066 78.340411 L 81.461273 78.340411 L 101.940442 46.012283 L 79.607107 46.012283 L 77.825856 52.934159 L 78.22169 52.934159 C 80.268565 48.215408 84.362315 46.668533 88.653982 46.668533 L 97.622733 46.668533 Z M 131.206069 79.819577 C 141.096695 79.819577 147.98732 72.074785 147.98732 62.507076 C 147.98732 52.934159 141.096695 45.189366 131.206069 45.189366 C 121.305027 45.189366 114.409193 52.934159 114.409193 62.507076 C 114.409193 72.074785 121.305027 79.819577 131.206069 79.819577 Z M 117.872735 62.507076 C 117.872735 53.402909 123.351902 46.012283 131.206069 46.012283 C 139.04982 46.012283 144.523779 53.402909 144.523779 62.507076 C 144.523779 71.606035 139.04982 79.001869 131.206069 79.001869 C 123.351902 79.001869 117.872735 71.606035 117.872735 62.507076 Z M 159.664405 78.606036 L 159.664405 79.001869 L 169.461281 79.001869 L 169.461281 78.606036 C 165.700864 78.434161 164.122738 76.465411 164.122738 72.564369 L 164.122738 48.684158 L 166.028989 51.423742 L 183.055032 78.241452 L 183.982115 79.460202 C 184.174823 79.725827 184.440448 79.819577 184.706073 79.819577 C 184.930032 79.819577 185.200865 79.725827 185.430032 79.564369 L 189.351907 77.048744 L 189.127949 76.793536 C 188.107115 77.085202 187.180032 76.824786 186.284199 76.163327 L 186.284199 50.856033 C 186.284199 49.24145 186.284199 46.402908 188.799824 46.402908 L 188.799824 46.012283 L 179.294615 46.012283 L 179.294615 46.402908 C 185.263365 46.402908 185.46649 52.637284 185.46649 54.257075 L 185.46649 75.439369 C 184.773782 74.71541 184.013365 73.850827 183.388365 72.861244 L 166.924822 46.829991 C 166.591489 46.340408 165.966489 46.012283 165.36753 46.012283 L 160.028988 46.012283 L 160.028988 46.402908 C 161.414405 46.402908 162.341488 46.470616 163.289405 47.564367 L 163.289405 74.15291 C 163.289405 75.772702 162.169613 78.606036 159.664405 78.606036 Z M 200.372741 78.606036 L 200.372741 79.001869 L 224.752952 79.001869 L 227.456077 71.350827 L 227.055035 71.350827 C 225.773785 74.24666 221.617535 78.340411 214.851909 78.340411 L 206.180034 78.340411 L 206.180034 59.533117 L 209.075867 59.533117 C 215.482118 59.533117 219.00816 59.204992 220.127951 62.507076 L 220.523785 62.507076 L 221.810243 58.871659 L 206.180034 58.871659 L 206.180034 46.668533 L 214.586284 46.668533 C 218.346701 46.668533 223.69566 46.829991 225.711285 51.189367 L 226.10191 51.189367 L 226.10191 46.012283 L 200.372741 46.012283 L 200.372741 46.402908 C 202.87795 46.402908 202.87795 49.24145 202.87795 50.856033 L 202.87795 74.15291 C 202.87795 75.772702 202.87795 78.606036 200.372741 78.606036 Z M 200.372741 78.606036 " stroke="#808080" stroke-width="2.474272" stroke-opacity="1" stroke-miterlimit="4"/><g fill="#ffffff" fill-opacity="1"><g transform="translate(41.462643, 141.283757)"><g><path d="M 1.484375 -12.371094 C 1.484375 -5.195312 6.65625 0.617188 14.078125 0.617188 C 21.5 0.617188 23.160156 -2.84375 23.160156 -2.84375 L 23.160156 -6.210938 L 22.863281 -6.210938 C 21.574219 -2.746094 19.25 0 15.761719 0 C 8.660156 0 3.539062 -6.804688 3.539062 -14.152344 C 3.539062 -18.558594 6.1875 -24.644531 13.261719 -24.644531 C 16.476562 -24.644531 19.546875 -23.085938 21.082031 -19.546875 L 21.378906 -19.546875 L 20.042969 -24.742188 C 20.042969 -24.742188 17.964844 -25.359375 14.078125 -25.359375 C 6.65625 -25.359375 1.484375 -19.546875 1.484375 -12.371094 Z M 1.484375 -12.371094 "/></g></g></g><g fill="#ffffff" fill-opacity="1"><g transform="translate(71.891774, 141.283757)"><g><path d="M 14.078125 0.617188 C 21.5 0.617188 26.671875 -5.195312 26.671875 -12.371094 C 26.671875 -19.546875 21.5 -25.359375 14.078125 -25.359375 C 6.65625 -25.359375 1.484375 -19.546875 1.484375 -12.371094 C 1.484375 -5.195312 6.65625 0.617188 14.078125 0.617188 Z M 4.082031 -12.371094 C 4.082031 -19.199219 8.191406 -24.742188 14.078125 -24.742188 C 19.96875 -24.742188 24.074219 -19.199219 24.074219 -12.371094 C 24.074219 -5.542969 19.96875 0 14.078125 0 C 8.191406 0 4.082031 -5.542969 4.082031 -12.371094 Z M 4.082031 -12.371094 "/></g></g></g><g fill="#ffffff" fill-opacity="1"><g transform="translate(106.328488, 141.283757)"><g><path d="M 5.492188 0 L 5.492188 -0.296875 C 4.625 -0.296875 3.613281 -0.867188 3.613281 -2.300781 C 3.613281 -4.082031 5.617188 -14.769531 7.152344 -21.304688 L 11.429688 -10.121094 C 12.570312 -7.125 13.359375 -4.824219 13.730469 -3.882812 C 13.878906 -3.511719 14.054688 -3.265625 14.398438 -3.265625 C 15.191406 -3.265625 15.808594 -4.921875 17.519531 -5.097656 L 17.519531 -5.441406 L 17 -5.441406 C 16.253906 -5.441406 15.859375 -5.839844 15.4375 -6.878906 C 15.390625 -7.003906 15.339844 -7.125 15.289062 -7.226562 C 17.566406 -12.667969 19.449219 -17.863281 21.476562 -23.457031 C 23.28125 -14.722656 25.113281 -4.253906 25.113281 -2.375 C 25.113281 -0.941406 24.097656 -0.296875 23.234375 -0.296875 L 23.234375 0 L 30.804688 0 L 30.804688 -0.296875 C 29.890625 -0.320312 28.578125 -1.238281 28.109375 -3.289062 C 26.546875 -10.121094 25.535156 -15.414062 24.148438 -23.132812 C 23.925781 -24.371094 25.335938 -24.445312 26.203125 -24.445312 L 26.203125 -24.742188 L 22.269531 -24.742188 C 21.574219 -24.742188 21.253906 -24.320312 21.105469 -23.902344 C 19.152344 -18.335938 17.222656 -13.238281 15.019531 -7.894531 C 12.816406 -13.238281 10.886719 -18.335938 8.933594 -23.902344 C 8.785156 -24.320312 8.460938 -24.742188 7.769531 -24.742188 L 4.105469 -24.742188 L 4.105469 -24.445312 C 4.972656 -24.445312 5.742188 -24.542969 6.335938 -23.183594 L 6.730469 -22.269531 C 5.195312 -15.4375 4.179688 -9.824219 2.695312 -3.289062 C 2.226562 -1.238281 0.914062 -0.320312 0 -0.296875 L 0 0 Z M 5.492188 0 "/></g></g></g><g fill="#ffffff" fill-opacity="1"><g transform="translate(143.41219, 141.283757)"><g><path d="M 7.226562 0 L 7.226562 -0.296875 C 5.34375 -0.296875 5.34375 -2.425781 5.34375 -3.636719 L 5.34375 -14.597656 L 8.460938 -14.597656 C 13.238281 -14.597656 15.910156 -14.84375 16.726562 -12.371094 L 17.023438 -12.371094 L 17.988281 -15.09375 L 5.34375 -15.09375 L 5.34375 -24.246094 L 14.746094 -24.246094 C 17.566406 -24.246094 19.992188 -23.207031 19.992188 -20.859375 L 20.289062 -20.859375 L 20.289062 -24.742188 L 0.988281 -24.742188 L 0.988281 -24.445312 C 2.871094 -24.445312 2.871094 -22.316406 2.871094 -21.105469 L 2.871094 -3.636719 C 2.871094 -2.425781 2.871094 -0.296875 0.988281 -0.296875 L 0.988281 0 Z M 7.226562 0 "/></g></g></g><g fill="#ffffff" fill-opacity="1"><g transform="translate(170.971678, 141.283757)"><g><path d="M 14.078125 0.617188 C 21.5 0.617188 26.671875 -5.195312 26.671875 -12.371094 C 26.671875 -19.546875 21.5 -25.359375 14.078125 -25.359375 C 6.65625 -25.359375 1.484375 -19.546875 1.484375 -12.371094 C 1.484375 -5.195312 6.65625 0.617188 14.078125 0.617188 Z M 4.082031 -12.371094 C 4.082031 -19.199219 8.191406 -24.742188 14.078125 -24.742188 C 19.96875 -24.742188 24.074219 -19.199219 24.074219 -12.371094 C 24.074219 -5.542969 19.96875 0 14.078125 0 C 8.191406 0 4.082031 -5.542969 4.082031 -12.371094 Z M 4.082031 -12.371094 "/></g></g></g><g fill="#ffffff" fill-opacity="1"><g transform="translate(205.408389, 141.283757)"><g><path d="M 2.871094 -21.105469 L 2.871094 -3.636719 C 2.871094 -2.425781 2.871094 -0.296875 0.988281 -0.296875 L 0.988281 0 L 7.226562 0 L 7.226562 -0.296875 C 5.34375 -0.296875 5.34375 -2.425781 5.34375 -3.636719 L 5.34375 -11.457031 L 8.957031 -11.457031 C 9.996094 -11.355469 10.390625 -10.789062 12.371094 -7.769531 C 14.003906 -5.269531 15.910156 -2.078125 15.910156 -1.359375 C 15.910156 -0.519531 15.167969 -0.296875 14.722656 -0.296875 L 14.722656 0 L 22.167969 0 L 22.167969 -0.296875 C 21.351562 -0.296875 20.636719 -0.644531 19.96875 -1.238281 C 18.878906 -2.203125 17.890625 -3.859375 16.550781 -5.789062 C 13.609375 -10.046875 13.460938 -11.183594 12.445312 -11.457031 L 13.804688 -11.457031 C 18.730469 -11.457031 21.054688 -14.796875 21.054688 -18.234375 C 21.054688 -21.527344 18.582031 -24.742188 13.855469 -24.742188 L 0.988281 -24.742188 L 0.988281 -24.445312 C 2.871094 -24.445312 2.871094 -22.316406 2.871094 -21.105469 Z M 12 -24.246094 C 16.402344 -24.246094 18.605469 -21.277344 18.605469 -18.160156 C 18.605469 -14.917969 16.402344 -11.976562 12.074219 -11.976562 L 5.34375 -11.976562 L 5.34375 -24.246094 Z M 12 -24.246094 "/></g></g></g><g fill="#ffffff" fill-opacity="1"><g transform="translate(233.858456, 141.283757)"><g><path d="M 0.296875 -20.859375 C 0.296875 -23.207031 2.722656 -24.246094 5.542969 -24.246094 L 7.941406 -24.246094 L 7.941406 -3.636719 C 7.941406 -2.425781 7.941406 -0.296875 6.0625 -0.296875 L 6.0625 0 L 12.296875 0 L 12.296875 -0.296875 C 10.417969 -0.296875 10.417969 -2.425781 10.417969 -3.636719 L 10.417969 -24.246094 L 12.816406 -24.246094 C 15.636719 -24.246094 18.0625 -23.207031 18.0625 -20.859375 L 18.359375 -20.859375 L 18.359375 -24.742188 L 0 -24.742188 L 0 -20.859375 Z M 0.296875 -20.859375 "/></g></g></g><g fill="#ffffff" fill-opacity="1"><g transform="translate(89.954827, 175.783754)"><g><path d="M 0.988281 0 L 18.558594 0 L 20.238281 -5.789062 L 19.941406 -5.789062 C 18.410156 -2.25 14.992188 -0.496094 11.777344 -0.496094 L 4.28125 -0.496094 L 19.644531 -24.742188 L 2.894531 -24.742188 L 1.558594 -19.546875 L 1.855469 -19.546875 C 3.390625 -23.085938 6.457031 -24.246094 9.675781 -24.246094 L 16.402344 -24.246094 Z M 0.988281 0 "/></g></g></g><g fill="#ffffff" fill-opacity="1"><g transform="translate(117.464845, 175.783754)"><g><path d="M 14.078125 0.617188 C 21.5 0.617188 26.671875 -5.195312 26.671875 -12.371094 C 26.671875 -19.546875 21.5 -25.359375 14.078125 -25.359375 C 6.65625 -25.359375 1.484375 -19.546875 1.484375 -12.371094 C 1.484375 -5.195312 6.65625 0.617188 14.078125 0.617188 Z M 4.082031 -12.371094 C 4.082031 -19.199219 8.191406 -24.742188 14.078125 -24.742188 C 19.96875 -24.742188 24.074219 -19.199219 24.074219 -12.371094 C 24.074219 -5.542969 19.96875 0 14.078125 0 C 8.191406 0 4.082031 -5.542969 4.082031 -12.371094 Z M 4.082031 -12.371094 "/></g></g></g><g fill="#ffffff" fill-opacity="1"><g transform="translate(151.901559, 175.783754)"><g><path d="M 0.988281 -0.296875 L 0.988281 0 L 8.339844 0 L 8.339844 -0.296875 C 5.515625 -0.421875 4.328125 -1.90625 4.328125 -4.824219 L 4.328125 -22.738281 L 5.765625 -20.683594 L 18.53125 -0.570312 L 19.226562 0.347656 C 19.375 0.542969 19.570312 0.617188 19.769531 0.617188 C 19.941406 0.617188 20.140625 0.542969 20.3125 0.421875 L 23.257812 -1.460938 L 23.085938 -1.65625 C 22.316406 -1.433594 21.625 -1.632812 20.957031 -2.128906 L 20.957031 -21.105469 C 20.957031 -22.316406 20.957031 -24.445312 22.835938 -24.445312 L 22.835938 -24.742188 L 15.710938 -24.742188 L 15.710938 -24.445312 C 20.191406 -24.445312 20.339844 -19.769531 20.339844 -18.558594 L 20.339844 -2.671875 C 19.820312 -3.214844 19.25 -3.859375 18.78125 -4.601562 L 6.433594 -24.125 C 6.1875 -24.496094 5.714844 -24.742188 5.269531 -24.742188 L 1.261719 -24.742188 L 1.261719 -24.445312 C 2.300781 -24.445312 2.992188 -24.394531 3.710938 -23.578125 L 3.710938 -3.636719 C 3.710938 -2.425781 2.871094 -0.296875 0.988281 -0.296875 Z M 0.988281 -0.296875 "/></g></g></g><g fill="#ffffff" fill-opacity="1"><g transform="translate(182.429638, 175.783754)"><g><path d="M 0.988281 -0.296875 L 0.988281 0 L 19.273438 0 L 21.304688 -5.742188 L 21.007812 -5.742188 C 20.042969 -3.5625 16.925781 -0.496094 11.851562 -0.496094 L 5.34375 -0.496094 L 5.34375 -14.597656 L 7.523438 -14.597656 C 12.320312 -14.597656 14.96875 -14.84375 15.808594 -12.371094 L 16.105469 -12.371094 L 17.074219 -15.09375 L 5.34375 -15.09375 L 5.34375 -24.246094 L 11.652344 -24.246094 C 14.472656 -24.246094 18.484375 -24.125 19.992188 -20.859375 L 20.289062 -20.859375 L 20.289062 -24.742188 L 0.988281 -24.742188 L 0.988281 -24.445312 C 2.871094 -24.445312 2.871094 -22.316406 2.871094 -21.105469 L 2.871094 -3.636719 C 2.871094 -2.425781 2.871094 -0.296875 0.988281 -0.296875 Z M 0.988281 -0.296875 "/></g></g></g><path stroke-linecap="butt" transform="matrix(0.75, 0, 0, 0.75, 27.216231, 227.784005)" fill="none" stroke-linejoin="miter" d="M 8.654401 23.001536 L 8.654401 16.095286 L 15.670026 16.095286 L 15.670026 23.001536 L 17.258568 23.001536 L 17.258568 7.558827 L 15.670026 7.558827 L 15.670026 14.506744 L 8.654401 14.506744 L 8.654401 7.558827 L 7.060651 7.558827 L 7.060651 23.001536 Z M 50.029404 15.230702 C 50.029404 17.006744 49.388779 18.501536 48.164821 19.730703 C 46.920029 20.975495 45.41482 21.590078 43.670029 21.590078 C 41.91482 21.590078 40.420028 20.975495 39.19607 19.730703 C 37.94607 18.501536 37.331486 17.006744 37.331486 15.230702 C 37.331486 13.506744 37.94607 12.011952 39.19607 10.756744 C 40.420028 9.532785 41.91482 8.897369 43.670029 8.897369 C 45.41482 8.897369 46.920029 9.532785 48.164821 10.756744 C 49.388779 12.011952 50.029404 13.506744 50.029404 15.230702 Z M 51.612737 15.230702 C 51.612737 14.147369 51.388779 13.121327 50.982529 12.14216 C 50.571071 11.189035 50.008571 10.355702 49.279404 9.621327 C 48.550237 8.918202 47.711695 8.350493 46.75857 7.939035 C 45.779404 7.537993 44.753362 7.308827 43.670029 7.308827 C 42.576278 7.308827 41.534612 7.537993 40.581487 7.939035 C 39.628362 8.350493 38.784611 8.918202 38.060653 9.621327 C 37.331486 10.355702 36.763778 11.189035 36.357528 12.14216 C 35.94607 13.121327 35.742945 14.147369 35.742945 15.230702 C 35.742945 16.324452 35.94607 17.366119 36.357528 18.319244 C 36.763778 19.298411 37.331486 20.136953 38.060653 20.86612 C 38.784611 21.590078 39.628362 22.157786 40.581487 22.569245 C 41.534612 22.975495 42.576278 23.183828 43.670029 23.183828 C 44.753362 23.183828 45.779404 22.975495 46.75857 22.569245 C 47.711695 22.157786 48.550237 21.590078 49.279404 20.86612 C 50.008571 20.136953 50.571071 19.298411 50.982529 18.319244 C 51.388779 17.366119 51.612737 16.324452 51.612737 15.230702 Z M 68.847114 8.991119 L 72.597114 8.991119 L 72.597114 22.954661 L 74.185656 22.954661 L 74.185656 8.991119 L 77.930448 8.991119 L 77.930448 7.511952 L 68.847114 7.511952 Z M 105.0242 23.001536 L 105.0242 21.527578 L 97.440866 21.527578 L 97.440866 16.032786 L 104.795033 16.032786 L 104.795033 14.527577 L 97.440866 14.527577 L 97.440866 9.032785 L 105.0242 9.032785 L 105.0242 7.558827 L 95.847116 7.558827 L 95.847116 23.001536 Z M 125.77941 21.407786 L 125.77941 7.558827 L 124.18566 7.558827 L 124.18566 23.001536 L 131.295036 23.001536 L 131.295036 21.407786 Z M 153.482537 15.730702 C 155.482538 16.209869 156.841913 16.735911 157.571079 17.324453 C 158.07108 17.730703 158.32108 18.251536 158.32108 18.892161 C 158.32108 19.522369 158.185663 20.048411 157.909621 20.412994 C 157.227329 21.36612 156.003371 21.840078 154.279413 21.840078 C 151.867954 21.840078 150.508579 21.027578 150.211704 19.392161 L 148.352329 19.392161 C 148.893995 22.001536 150.867954 23.293203 154.279413 23.293203 C 155.800246 23.293203 157.071079 22.975495 158.091913 22.298411 C 159.32108 21.501536 159.956496 20.324453 159.956496 18.777578 C 159.956496 17.506744 159.451288 16.527577 158.456496 15.845286 C 157.748163 15.350494 156.612746 14.892161 155.050246 14.485911 C 153.461704 14.074452 152.440871 13.735911 151.961704 13.485911 C 150.914829 12.965077 150.393996 12.230702 150.414829 11.277577 C 150.414829 10.777577 150.508579 10.355702 150.737746 10.032785 C 151.326287 9.14216 152.373162 8.694244 153.867954 8.694244 C 155.982538 8.694244 157.185663 9.371327 157.503371 10.689035 L 159.232538 10.689035 C 158.659621 8.470285 156.867954 7.32966 153.867954 7.32966 C 152.503371 7.32966 151.300246 7.694243 150.305454 8.418202 C 149.279412 9.14216 148.758579 10.215077 148.758579 11.668202 C 148.758579 13.642161 150.347121 15.006744 153.482537 15.730702 Z M 204.164833 15.168202 L 207.555459 19.501536 C 207.326292 19.730703 207.076292 19.980703 206.80025 20.225494 C 205.80025 21.183828 204.873167 21.636953 204.055458 21.636953 C 203.284625 21.636953 202.602333 21.340078 202.055458 20.725494 C 201.508583 20.136953 201.23775 19.454661 201.23775 18.689036 C 201.23775 18.048411 201.597125 17.366119 202.352333 16.616119 C 202.690875 16.277577 203.284625 15.803619 204.164833 15.168202 Z M 204.034625 12.642161 C 203.352333 11.939035 203.029417 11.277577 203.029417 10.600494 C 203.029417 9.944244 203.211708 9.465077 203.602333 9.14216 C 203.961708 8.850494 204.394 8.715077 204.847125 8.741119 C 205.305458 8.761952 205.73775 8.918202 206.123167 9.241119 C 206.482542 9.553619 206.690875 10.011952 206.690875 10.553619 C 206.690875 11.121327 206.440875 11.647369 205.961708 12.121327 C 205.73775 12.350494 205.508583 12.532785 205.258583 12.715077 C 205.008583 12.892161 204.779417 13.053619 204.555458 13.215077 C 204.373167 13.032786 204.211708 12.824452 204.034625 12.642161 Z M 211.706501 16.985911 L 210.414834 16.121327 L 209.55025 17.209869 C 209.258584 17.574453 208.961709 17.939036 208.664834 18.298411 L 205.48775 14.235911 C 205.758583 14.006744 206.076292 13.777577 206.394 13.506744 C 207.576292 12.532785 208.164834 11.532785 208.164834 10.532785 C 208.164834 9.600494 207.847125 8.82966 207.211709 8.220285 C 206.602333 7.626535 205.826292 7.32966 204.873167 7.32966 C 203.873167 7.32966 203.055458 7.647368 202.466916 8.282785 C 201.847125 8.918202 201.555458 9.715077 201.555458 10.668202 C 201.555458 11.621327 202.102333 12.735911 203.190875 13.985911 C 202.73775 14.324452 202.279416 14.642161 201.878375 14.959869 C 200.394 16.032786 199.670041 17.324453 199.670041 18.798411 C 199.670041 20.095286 200.0815 21.157786 200.946083 22.02237 C 201.352333 22.433828 201.826291 22.730703 202.373166 22.954661 C 202.920042 23.183828 203.555458 23.27237 204.258583 23.27237 C 204.98775 23.27237 205.779417 23.001536 206.711708 22.412995 C 207.185667 22.136953 207.779417 21.61612 208.55025 20.845286 L 210.232542 23.043203 L 212.321084 23.001536 L 209.659625 19.522369 C 210.795042 18.162994 211.477334 17.298411 211.706501 16.985911 Z M 257.461713 15.730702 C 259.461713 16.209869 260.821088 16.735911 261.555463 17.324453 C 262.055463 17.730703 262.300255 18.251536 262.300255 18.892161 C 262.300255 19.522369 262.164838 20.048411 261.894005 20.412994 C 261.211713 21.36612 259.982546 21.840078 258.258588 21.840078 C 255.847129 21.840078 254.492962 21.027578 254.190879 19.392161 L 252.331504 19.392161 C 252.878379 22.001536 254.852337 23.293203 258.258588 23.293203 C 259.779421 23.293203 261.050255 22.975495 262.076296 22.298411 C 263.300255 21.501536 263.94088 20.324453 263.94088 18.777578 C 263.94088 17.506744 263.435671 16.527577 262.435671 15.845286 C 261.732546 15.350494 260.59713 14.892161 259.029421 14.485911 C 257.440879 14.074452 256.420046 13.735911 255.940879 13.485911 C 254.894004 12.965077 254.373171 12.230702 254.394004 11.277577 C 254.394004 10.777577 254.492962 10.355702 254.716921 10.032785 C 255.305462 9.14216 256.352338 8.694244 257.852338 8.694244 C 259.961713 8.694244 261.164838 9.371327 261.482546 10.689035 L 263.211713 10.689035 C 262.638796 8.470285 260.852338 7.32966 257.852338 7.32966 C 256.487754 7.32966 255.284629 7.694243 254.284629 8.418202 C 253.258587 9.14216 252.737754 10.215077 252.737754 11.668202 C 252.737754 13.642161 254.331504 15.006744 257.461713 15.730702 Z M 283.576298 15.350494 L 283.576298 9.07966 L 287.16484 9.07966 C 288.097132 9.07966 288.847132 9.371327 289.41484 9.944244 C 289.961715 10.532785 290.253382 11.256744 290.253382 12.168202 C 290.253382 13.095286 289.961715 13.845286 289.367965 14.459869 C 288.779424 15.048411 288.050257 15.350494 287.16484 15.350494 Z M 291.847132 12.209869 C 291.847132 10.850494 291.347132 9.73591 290.394007 8.850494 C 289.440882 7.991118 288.300257 7.558827 286.935673 7.558827 L 281.987756 7.558827 L 281.987756 23.001536 L 283.576298 23.001536 L 283.576298 16.892161 L 286.935673 16.892161 C 288.300257 16.892161 289.461715 16.459869 290.394007 15.600494 C 291.347132 14.689036 291.847132 13.574452 291.847132 12.209869 Z M 312.258592 17.324453 L 315.076301 10.215077 L 317.862759 17.324453 Z M 321.841926 23.001536 L 315.076301 6.491118 L 308.284633 23.001536 L 310.008592 23.001536 L 311.664842 18.798411 L 318.456509 18.798411 L 320.112759 23.001536 Z M 321.841926 23.001536 " stroke="#211717" stroke-width="1.703363" stroke-opacity="1" stroke-miterlimit="4"/><g fill="#ffffff" fill-opacity="1"><g transform="translate(31.235762, 245.034004)"><g><path d="M 2.46875 0 L 2.46875 -5.179688 L 7.734375 -5.179688 L 7.734375 0 L 8.925781 0 L 8.925781 -11.582031 L 7.734375 -11.582031 L 7.734375 -6.371094 L 2.46875 -6.371094 L 2.46875 -11.582031 L 1.277344 -11.582031 L 1.277344 0 Z M 2.46875 0 "/></g></g></g><g fill="#ffffff" fill-opacity="1"><g transform="translate(53.256493, 245.034004)"><g><path d="M 11.480469 -5.824219 C 11.480469 -4.496094 11.003906 -3.371094 10.082031 -2.453125 C 9.144531 -1.515625 8.023438 -1.054688 6.710938 -1.054688 C 5.398438 -1.054688 4.273438 -1.515625 3.355469 -2.453125 C 2.417969 -3.371094 1.957031 -4.496094 1.957031 -5.824219 C 1.957031 -7.121094 2.417969 -8.242188 3.355469 -9.179688 C 4.273438 -10.101562 5.398438 -10.578125 6.710938 -10.578125 C 8.023438 -10.578125 9.144531 -10.101562 10.082031 -9.179688 C 11.003906 -8.242188 11.480469 -7.121094 11.480469 -5.824219 Z M 12.671875 -5.824219 C 12.671875 -6.644531 12.5 -7.410156 12.195312 -8.140625 C 11.890625 -8.855469 11.460938 -9.488281 10.917969 -10.03125 C 10.371094 -10.558594 9.742188 -10.984375 9.027344 -11.292969 C 8.292969 -11.597656 7.527344 -11.769531 6.710938 -11.769531 C 5.894531 -11.769531 5.109375 -11.597656 4.394531 -11.292969 C 3.679688 -10.984375 3.046875 -10.558594 2.503906 -10.03125 C 1.957031 -9.488281 1.53125 -8.855469 1.226562 -8.140625 C 0.917969 -7.410156 0.765625 -6.644531 0.765625 -5.824219 C 0.765625 -5.007812 0.917969 -4.222656 1.226562 -3.507812 C 1.53125 -2.777344 1.957031 -2.144531 2.503906 -1.601562 C 3.046875 -1.054688 3.679688 -0.628906 4.394531 -0.324219 C 5.109375 -0.015625 5.894531 0.136719 6.710938 0.136719 C 7.527344 0.136719 8.292969 -0.015625 9.027344 -0.324219 C 9.742188 -0.628906 10.371094 -1.054688 10.917969 -1.601562 C 11.460938 -2.144531 11.890625 -2.777344 12.195312 -3.507812 C 12.5 -4.222656 12.671875 -5.007812 12.671875 -5.824219 Z M 12.671875 -5.824219 "/></g></g></g><g fill="#ffffff" fill-opacity="1"><g transform="translate(78.512423, 245.034004)"><g><path d="M 0.339844 -10.507812 L 3.152344 -10.507812 L 3.152344 -0.0351562 L 4.34375 -0.0351562 L 4.34375 -10.507812 L 7.152344 -10.507812 L 7.152344 -11.617188 L 0.339844 -11.617188 Z M 0.339844 -10.507812 "/></g></g></g><g fill="#ffffff" fill-opacity="1"><g transform="translate(97.825803, 245.034004)"><g><path d="M 8.160156 0 L 8.160156 -1.105469 L 2.46875 -1.105469 L 2.46875 -5.230469 L 7.988281 -5.230469 L 7.988281 -6.351562 L 2.46875 -6.351562 L 2.46875 -10.476562 L 8.160156 -10.476562 L 8.160156 -11.582031 L 1.277344 -11.582031 L 1.277344 0 Z M 8.160156 0 "/></g></g></g><g fill="#ffffff" fill-opacity="1"><g transform="translate(119.080306, 245.034004)"><g><path d="M 2.46875 -1.191406 L 2.46875 -11.582031 L 1.277344 -11.582031 L 1.277344 0 L 6.609375 0 L 6.609375 -1.191406 Z M 2.46875 -1.191406 "/></g></g></g><g fill="#ffffff" fill-opacity="1"><g transform="translate(137.848809, 245.034004)"><g><path d="M 4.480469 -5.449219 C 5.976562 -5.09375 7 -4.699219 7.546875 -4.257812 C 7.921875 -3.953125 8.109375 -3.558594 8.109375 -3.082031 C 8.109375 -2.605469 8.003906 -2.214844 7.800781 -1.941406 C 7.289062 -1.226562 6.371094 -0.867188 5.074219 -0.867188 C 3.269531 -0.867188 2.25 -1.480469 2.027344 -2.707031 L 0.628906 -2.707031 C 1.039062 -0.75 2.519531 0.222656 5.074219 0.222656 C 6.21875 0.222656 7.171875 -0.015625 7.9375 -0.527344 C 8.855469 -1.125 9.332031 -2.011719 9.332031 -3.167969 C 9.332031 -4.121094 8.960938 -4.855469 8.210938 -5.367188 C 7.683594 -5.738281 6.828125 -6.082031 5.65625 -6.386719 C 4.460938 -6.695312 3.695312 -6.949219 3.339844 -7.136719 C 2.554688 -7.527344 2.164062 -8.074219 2.179688 -8.789062 C 2.179688 -9.164062 2.25 -9.488281 2.417969 -9.726562 C 2.863281 -10.390625 3.644531 -10.730469 4.769531 -10.730469 C 6.351562 -10.730469 7.253906 -10.21875 7.496094 -9.230469 L 8.789062 -9.230469 C 8.363281 -10.902344 7.015625 -11.753906 4.769531 -11.753906 C 3.746094 -11.753906 2.84375 -11.480469 2.09375 -10.933594 C 1.328125 -10.390625 0.9375 -9.589844 0.9375 -8.5 C 0.9375 -7.015625 2.128906 -5.996094 4.480469 -5.449219 Z M 4.480469 -5.449219 "/></g></g></g><g fill="#ffffff" fill-opacity="1"><g transform="translate(159.443854, 245.034004)"><g/></g></g><g fill="#ffffff" fill-opacity="1"><g transform="translate(175.862577, 245.034004)"><g><path d="M 4.480469 -5.875 L 7.015625 -2.621094 C 6.847656 -2.453125 6.660156 -2.265625 6.457031 -2.078125 C 5.707031 -1.363281 5.007812 -1.023438 4.394531 -1.023438 C 3.816406 -1.023438 3.304688 -1.242188 2.894531 -1.703125 C 2.488281 -2.144531 2.28125 -2.65625 2.28125 -3.234375 C 2.28125 -3.714844 2.554688 -4.222656 3.117188 -4.785156 C 3.371094 -5.042969 3.816406 -5.398438 4.480469 -5.875 Z M 4.378906 -7.765625 C 3.867188 -8.292969 3.628906 -8.789062 3.628906 -9.300781 C 3.628906 -9.792969 3.765625 -10.152344 4.054688 -10.390625 C 4.328125 -10.609375 4.648438 -10.714844 4.992188 -10.695312 C 5.332031 -10.679688 5.65625 -10.558594 5.945312 -10.320312 C 6.21875 -10.082031 6.371094 -9.742188 6.371094 -9.332031 C 6.371094 -8.90625 6.183594 -8.515625 5.824219 -8.160156 C 5.65625 -7.988281 5.484375 -7.851562 5.296875 -7.714844 C 5.109375 -7.578125 4.9375 -7.460938 4.769531 -7.339844 C 4.632812 -7.476562 4.511719 -7.628906 4.378906 -7.765625 Z M 10.132812 -4.511719 L 9.164062 -5.160156 L 8.515625 -4.34375 C 8.292969 -4.070312 8.074219 -3.796875 7.851562 -3.527344 L 5.46875 -6.574219 C 5.671875 -6.746094 5.910156 -6.914062 6.148438 -7.121094 C 7.035156 -7.851562 7.476562 -8.601562 7.476562 -9.351562 C 7.476562 -10.050781 7.238281 -10.628906 6.761719 -11.089844 C 6.300781 -11.53125 5.722656 -11.753906 5.007812 -11.753906 C 4.257812 -11.753906 3.644531 -11.515625 3.203125 -11.035156 C 2.742188 -10.558594 2.519531 -9.964844 2.519531 -9.25 C 2.519531 -8.535156 2.929688 -7.699219 3.746094 -6.761719 C 3.40625 -6.507812 3.066406 -6.269531 2.757812 -6.03125 C 1.652344 -5.230469 1.105469 -4.257812 1.105469 -3.152344 C 1.105469 -2.179688 1.414062 -1.378906 2.0625 -0.730469 C 2.367188 -0.425781 2.726562 -0.203125 3.132812 -0.0351562 C 3.542969 0.136719 4.019531 0.203125 4.546875 0.203125 C 5.09375 0.203125 5.6875 0 6.386719 -0.441406 C 6.746094 -0.648438 7.1875 -1.039062 7.765625 -1.617188 L 9.027344 0.0351562 L 10.59375 0 L 8.601562 -2.605469 C 9.453125 -3.628906 9.964844 -4.273438 10.132812 -4.511719 Z M 10.132812 -4.511719 "/></g></g></g><g fill="#ffffff" fill-opacity="1"><g transform="translate(199.415775, 245.034004)"><g/></g></g><g fill="#ffffff" fill-opacity="1"><g transform="translate(215.834497, 245.034004)"><g><path d="M 4.480469 -5.449219 C 5.976562 -5.09375 7 -4.699219 7.546875 -4.257812 C 7.921875 -3.953125 8.109375 -3.558594 8.109375 -3.082031 C 8.109375 -2.605469 8.003906 -2.214844 7.800781 -1.941406 C 7.289062 -1.226562 6.371094 -0.867188 5.074219 -0.867188 C 3.269531 -0.867188 2.25 -1.480469 2.027344 -2.707031 L 0.628906 -2.707031 C 1.039062 -0.75 2.519531 0.222656 5.074219 0.222656 C 6.21875 0.222656 7.171875 -0.015625 7.9375 -0.527344 C 8.855469 -1.125 9.332031 -2.011719 9.332031 -3.167969 C 9.332031 -4.121094 8.960938 -4.855469 8.210938 -5.367188 C 7.683594 -5.738281 6.828125 -6.082031 5.65625 -6.386719 C 4.460938 -6.695312 3.695312 -6.949219 3.339844 -7.136719 C 2.554688 -7.527344 2.164062 -8.074219 2.179688 -8.789062 C 2.179688 -9.164062 2.25 -9.488281 2.417969 -9.726562 C 2.863281 -10.390625 3.644531 -10.730469 4.769531 -10.730469 C 6.351562 -10.730469 7.253906 -10.21875 7.496094 -9.230469 L 8.789062 -9.230469 C 8.363281 -10.902344 7.015625 -11.753906 4.769531 -11.753906 C 3.746094 -11.753906 2.84375 -11.480469 2.09375 -10.933594 C 1.328125 -10.390625 0.9375 -9.589844 0.9375 -8.5 C 0.9375 -7.015625 2.128906 -5.996094 4.480469 -5.449219 Z M 4.480469 -5.449219 "/></g></g></g><g fill="#ffffff" fill-opacity="1"><g transform="translate(237.429531, 245.034004)"><g><path d="M 2.46875 -5.738281 L 2.46875 -10.441406 L 5.160156 -10.441406 C 5.859375 -10.441406 6.421875 -10.21875 6.847656 -9.792969 C 7.253906 -9.351562 7.476562 -8.804688 7.476562 -8.125 C 7.476562 -7.425781 7.253906 -6.863281 6.8125 -6.402344 C 6.371094 -5.960938 5.824219 -5.738281 5.160156 -5.738281 Z M 8.667969 -8.089844 C 8.667969 -9.113281 8.292969 -9.945312 7.578125 -10.609375 C 6.863281 -11.257812 6.011719 -11.582031 4.992188 -11.582031 L 1.277344 -11.582031 L 1.277344 0 L 2.46875 0 L 2.46875 -4.582031 L 4.992188 -4.582031 C 6.011719 -4.582031 6.882812 -4.90625 7.578125 -5.550781 C 8.292969 -6.234375 8.667969 -7.070312 8.667969 -8.089844 Z M 8.667969 -8.089844 "/></g></g></g><g fill="#ffffff" fill-opacity="1"><g transform="translate(258.258349, 245.034004)"><g><path d="M 3.152344 -4.257812 L 5.261719 -9.589844 L 7.359375 -4.257812 Z M 10.339844 0 L 5.261719 -12.382812 L 0.171875 0 L 1.464844 0 L 2.707031 -3.152344 L 7.800781 -3.152344 L 9.042969 0 Z M 10.339844 0 "/></g></g></g></svg>