<svg xmlns="http://www.w3.org/2000/svg" xmlns:xlink="http://www.w3.org/1999/xlink" width="160" zoomAndPan="magnify" viewBox="0 0 120 63.749997" height="85" preserveAspectRatio="xMidYMid meet" version="1.0"><defs><g/><clipPath id="a766f760c0"><path d="M 0.234375 0 L 119.765625 0 L 119.765625 63.5 L 0.234375 63.5 Z M 0.234375 0 " clip-rule="nonzero"/></clipPath><clipPath id="8535e30594"><path d="M 43.386719 2.273438 L 71.773438 2.273438 L 71.773438 22.441406 L 43.386719 22.441406 Z M 43.386719 2.273438 " clip-rule="nonzero"/></clipPath><clipPath id="1842890a34"><path d="M 61.125 8.433594 C 60.945312 6.253906 59.867188 4.21875 58.039062 2.648438 L 57.597656 2.273438 L 57.15625 2.648438 C 55.328125 4.21875 54.25 6.253906 54.070312 8.433594 L 43.417969 8.433594 L 43.417969 9.105469 C 43.417969 13.082031 47.242188 16.320312 51.945312 16.320312 C 53.050781 16.320312 54.105469 16.140625 55.078125 15.8125 C 54.121094 16.777344 52.777344 18.679688 52.777344 21.773438 L 52.777344 22.441406 L 62.382812 22.441406 L 62.382812 21.773438 C 62.382812 18.679688 61.039062 16.777344 60.082031 15.8125 C 61.050781 16.140625 62.109375 16.320312 63.214844 16.320312 C 67.914062 16.320312 71.738281 13.082031 71.738281 9.105469 L 71.738281 8.433594 Z M 57.578125 12.742188 C 56.773438 11.90625 56.238281 10.886719 56.082031 9.773438 L 59.078125 9.773438 C 58.921875 10.886719 58.386719 11.90625 57.578125 12.742188 Z M 57.597656 4.066406 C 58.851562 5.304688 59.609375 6.816406 59.773438 8.417969 L 55.421875 8.417969 C 55.585938 6.816406 56.339844 5.304688 57.597656 4.066406 Z M 44.8125 9.773438 L 54.726562 9.773438 C 54.886719 11.214844 55.542969 12.53125 56.558594 13.601562 C 55.308594 14.464844 53.699219 14.980469 51.945312 14.980469 C 48.261719 14.980469 45.21875 12.699219 44.8125 9.773438 Z M 54.148438 21.105469 C 54.339844 18.542969 55.605469 17.105469 56.300781 16.5 C 56.429688 16.609375 56.574219 16.75 56.730469 16.917969 C 56.078125 17.890625 55.476562 19.261719 55.355469 21.105469 Z M 56.703125 21.105469 C 56.800781 19.835938 57.15625 18.84375 57.578125 18.09375 C 58 18.84375 58.359375 19.835938 58.453125 21.105469 Z M 59.804688 21.105469 C 59.683594 19.265625 59.082031 17.890625 58.429688 16.917969 C 58.585938 16.75 58.730469 16.609375 58.859375 16.5 C 59.550781 17.105469 60.820312 18.542969 61.011719 21.105469 Z M 57.578125 15.871094 C 57.179688 15.457031 56.839844 15.207031 56.683594 15.101562 C 56.996094 14.921875 57.296875 14.722656 57.578125 14.511719 C 57.863281 14.722656 58.160156 14.921875 58.476562 15.101562 C 58.320312 15.207031 57.980469 15.457031 57.578125 15.871094 Z M 63.214844 14.980469 C 61.460938 14.980469 59.851562 14.464844 58.601562 13.601562 C 59.613281 12.53125 60.273438 11.214844 60.429688 9.773438 L 70.347656 9.773438 C 69.941406 12.699219 66.898438 14.980469 63.214844 14.980469 Z M 63.214844 14.980469 " clip-rule="nonzero"/></clipPath><linearGradient x1="0.0000164177" gradientTransform="matrix(0.0724179, 0, 0, 0.0720132, 43.418671, 2.271722)" y1="140.054993" x2="391.083995" gradientUnits="userSpaceOnUse" y2="140.054993" id="2caca909b6"><stop stop-opacity="1" stop-color="rgb(45.098877%, 45.098877%, 45.098877%)" offset="0"/><stop stop-opacity="1" stop-color="rgb(45.3125%, 45.3125%, 45.3125%)" offset="0.00390625"/><stop stop-opacity="1" stop-color="rgb(45.527649%, 45.527649%, 45.527649%)" offset="0.0078125"/><stop stop-opacity="1" stop-color="rgb(45.741272%, 45.741272%, 45.741272%)" offset="0.0117188"/><stop stop-opacity="1" stop-color="rgb(45.956421%, 45.956421%, 45.956421%)" offset="0.015625"/><stop stop-opacity="1" stop-color="rgb(46.17157%, 46.17157%, 46.17157%)" offset="0.0195312"/><stop stop-opacity="1" stop-color="rgb(46.386719%, 46.386719%, 46.386719%)" offset="0.0234375"/><stop stop-opacity="1" stop-color="rgb(46.600342%, 46.600342%, 46.600342%)" offset="0.0273438"/><stop stop-opacity="1" stop-color="rgb(46.815491%, 46.815491%, 46.815491%)" offset="0.03125"/><stop stop-opacity="1" stop-color="rgb(47.029114%, 47.029114%, 47.029114%)" offset="0.0351563"/><stop stop-opacity="1" stop-color="rgb(47.244263%, 47.244263%, 47.244263%)" offset="0.0390625"/><stop stop-opacity="1" stop-color="rgb(47.457886%, 47.457886%, 47.457886%)" offset="0.0429688"/><stop stop-opacity="1" stop-color="rgb(47.673035%, 47.673035%, 47.673035%)" offset="0.046875"/><stop stop-opacity="1" stop-color="rgb(47.886658%, 47.886658%, 47.886658%)" offset="0.0507812"/><stop stop-opacity="1" stop-color="rgb(48.101807%, 48.101807%, 48.101807%)" offset="0.0546875"/><stop stop-opacity="1" stop-color="rgb(48.31543%, 48.31543%, 48.31543%)" offset="0.0585938"/><stop stop-opacity="1" stop-color="rgb(48.530579%, 48.530579%, 48.530579%)" offset="0.0625"/><stop stop-opacity="1" stop-color="rgb(48.744202%, 48.744202%, 48.744202%)" offset="0.0664063"/><stop stop-opacity="1" stop-color="rgb(48.959351%, 48.959351%, 48.959351%)" offset="0.0703125"/><stop stop-opacity="1" stop-color="rgb(49.172974%, 49.172974%, 49.172974%)" offset="0.0742188"/><stop stop-opacity="1" stop-color="rgb(49.388123%, 49.388123%, 49.388123%)" offset="0.078125"/><stop stop-opacity="1" stop-color="rgb(49.601746%, 49.601746%, 49.601746%)" offset="0.0820312"/><stop stop-opacity="1" stop-color="rgb(49.816895%, 49.816895%, 49.816895%)" offset="0.0859375"/><stop stop-opacity="1" stop-color="rgb(50.030518%, 50.030518%, 50.030518%)" offset="0.0898438"/><stop stop-opacity="1" stop-color="rgb(50.245667%, 50.245667%, 50.245667%)" offset="0.09375"/><stop stop-opacity="1" stop-color="rgb(50.45929%, 50.45929%, 50.45929%)" offset="0.0976563"/><stop stop-opacity="1" stop-color="rgb(50.674438%, 50.674438%, 50.674438%)" offset="0.101563"/><stop stop-opacity="1" stop-color="rgb(50.888062%, 50.888062%, 50.888062%)" offset="0.105469"/><stop stop-opacity="1" stop-color="rgb(51.10321%, 51.10321%, 51.10321%)" offset="0.109375"/><stop stop-opacity="1" stop-color="rgb(51.318359%, 51.318359%, 51.318359%)" offset="0.113281"/><stop stop-opacity="1" stop-color="rgb(51.533508%, 51.533508%, 51.533508%)" offset="0.117188"/><stop stop-opacity="1" stop-color="rgb(51.747131%, 51.747131%, 51.747131%)" offset="0.121094"/><stop stop-opacity="1" stop-color="rgb(51.96228%, 51.96228%, 51.96228%)" offset="0.125"/><stop stop-opacity="1" stop-color="rgb(52.175903%, 52.175903%, 52.175903%)" offset="0.128906"/><stop stop-opacity="1" stop-color="rgb(52.391052%, 52.391052%, 52.391052%)" offset="0.132812"/><stop stop-opacity="1" stop-color="rgb(52.604675%, 52.604675%, 52.604675%)" offset="0.136719"/><stop stop-opacity="1" stop-color="rgb(52.819824%, 52.819824%, 52.819824%)" offset="0.140625"/><stop stop-opacity="1" stop-color="rgb(53.033447%, 53.033447%, 53.033447%)" offset="0.144531"/><stop stop-opacity="1" stop-color="rgb(53.248596%, 53.248596%, 53.248596%)" offset="0.148438"/><stop stop-opacity="1" stop-color="rgb(53.462219%, 53.462219%, 53.462219%)" offset="0.152344"/><stop stop-opacity="1" stop-color="rgb(53.677368%, 53.677368%, 53.677368%)" offset="0.15625"/><stop stop-opacity="1" stop-color="rgb(53.890991%, 53.890991%, 53.890991%)" offset="0.160156"/><stop stop-opacity="1" stop-color="rgb(54.10614%, 54.10614%, 54.10614%)" offset="0.164062"/><stop stop-opacity="1" stop-color="rgb(54.319763%, 54.319763%, 54.319763%)" offset="0.167969"/><stop stop-opacity="1" stop-color="rgb(54.534912%, 54.534912%, 54.534912%)" offset="0.171875"/><stop stop-opacity="1" stop-color="rgb(54.748535%, 54.748535%, 54.748535%)" offset="0.175781"/><stop stop-opacity="1" stop-color="rgb(54.963684%, 54.963684%, 54.963684%)" offset="0.179688"/><stop stop-opacity="1" stop-color="rgb(55.177307%, 55.177307%, 55.177307%)" offset="0.183594"/><stop stop-opacity="1" stop-color="rgb(55.392456%, 55.392456%, 55.392456%)" offset="0.1875"/><stop stop-opacity="1" stop-color="rgb(55.606079%, 55.606079%, 55.606079%)" offset="0.191406"/><stop stop-opacity="1" stop-color="rgb(55.821228%, 55.821228%, 55.821228%)" offset="0.195312"/><stop stop-opacity="1" stop-color="rgb(56.036377%, 56.036377%, 56.036377%)" offset="0.199219"/><stop stop-opacity="1" stop-color="rgb(56.251526%, 56.251526%, 56.251526%)" offset="0.203125"/><stop stop-opacity="1" stop-color="rgb(56.465149%, 56.465149%, 56.465149%)" offset="0.207031"/><stop stop-opacity="1" stop-color="rgb(56.680298%, 56.680298%, 56.680298%)" offset="0.210938"/><stop stop-opacity="1" stop-color="rgb(56.893921%, 56.893921%, 56.893921%)" offset="0.214844"/><stop stop-opacity="1" stop-color="rgb(57.10907%, 57.10907%, 57.10907%)" offset="0.21875"/><stop stop-opacity="1" stop-color="rgb(57.322693%, 57.322693%, 57.322693%)" offset="0.222656"/><stop stop-opacity="1" stop-color="rgb(57.537842%, 57.537842%, 57.537842%)" offset="0.226562"/><stop stop-opacity="1" stop-color="rgb(57.751465%, 57.751465%, 57.751465%)" offset="0.230469"/><stop stop-opacity="1" stop-color="rgb(57.966614%, 57.966614%, 57.966614%)" offset="0.234375"/><stop stop-opacity="1" stop-color="rgb(58.180237%, 58.180237%, 58.180237%)" offset="0.238281"/><stop stop-opacity="1" stop-color="rgb(58.395386%, 58.395386%, 58.395386%)" offset="0.242188"/><stop stop-opacity="1" stop-color="rgb(58.609009%, 58.609009%, 58.609009%)" offset="0.246094"/><stop stop-opacity="1" stop-color="rgb(58.824158%, 58.824158%, 58.824158%)" offset="0.25"/><stop stop-opacity="1" stop-color="rgb(59.037781%, 59.037781%, 59.037781%)" offset="0.253906"/><stop stop-opacity="1" stop-color="rgb(59.25293%, 59.25293%, 59.25293%)" offset="0.257812"/><stop stop-opacity="1" stop-color="rgb(59.466553%, 59.466553%, 59.466553%)" offset="0.261719"/><stop stop-opacity="1" stop-color="rgb(59.681702%, 59.681702%, 59.681702%)" offset="0.265625"/><stop stop-opacity="1" stop-color="rgb(59.895325%, 59.895325%, 59.895325%)" offset="0.269531"/><stop stop-opacity="1" stop-color="rgb(60.110474%, 60.110474%, 60.110474%)" offset="0.273437"/><stop stop-opacity="1" stop-color="rgb(60.324097%, 60.324097%, 60.324097%)" offset="0.277344"/><stop stop-opacity="1" stop-color="rgb(60.539246%, 60.539246%, 60.539246%)" offset="0.28125"/><stop stop-opacity="1" stop-color="rgb(60.752869%, 60.752869%, 60.752869%)" offset="0.285156"/><stop stop-opacity="1" stop-color="rgb(60.968018%, 60.968018%, 60.968018%)" offset="0.289062"/><stop stop-opacity="1" stop-color="rgb(61.183167%, 61.183167%, 61.183167%)" offset="0.292969"/><stop stop-opacity="1" stop-color="rgb(61.398315%, 61.398315%, 61.398315%)" offset="0.296875"/><stop stop-opacity="1" stop-color="rgb(61.611938%, 61.611938%, 61.611938%)" offset="0.300781"/><stop stop-opacity="1" stop-color="rgb(61.827087%, 61.827087%, 61.827087%)" offset="0.304687"/><stop stop-opacity="1" stop-color="rgb(62.04071%, 62.04071%, 62.04071%)" offset="0.308594"/><stop stop-opacity="1" stop-color="rgb(62.255859%, 62.255859%, 62.255859%)" offset="0.3125"/><stop stop-opacity="1" stop-color="rgb(62.469482%, 62.469482%, 62.469482%)" offset="0.316406"/><stop stop-opacity="1" stop-color="rgb(62.684631%, 62.684631%, 62.684631%)" offset="0.320312"/><stop stop-opacity="1" stop-color="rgb(62.898254%, 62.898254%, 62.898254%)" offset="0.324219"/><stop stop-opacity="1" stop-color="rgb(63.113403%, 63.113403%, 63.113403%)" offset="0.328125"/><stop stop-opacity="1" stop-color="rgb(63.327026%, 63.327026%, 63.327026%)" offset="0.332031"/><stop stop-opacity="1" stop-color="rgb(63.542175%, 63.542175%, 63.542175%)" offset="0.335937"/><stop stop-opacity="1" stop-color="rgb(63.755798%, 63.755798%, 63.755798%)" offset="0.339844"/><stop stop-opacity="1" stop-color="rgb(63.970947%, 63.970947%, 63.970947%)" offset="0.34375"/><stop stop-opacity="1" stop-color="rgb(64.18457%, 64.18457%, 64.18457%)" offset="0.347656"/><stop stop-opacity="1" stop-color="rgb(64.399719%, 64.399719%, 64.399719%)" offset="0.351562"/><stop stop-opacity="1" stop-color="rgb(64.613342%, 64.613342%, 64.613342%)" offset="0.355469"/><stop stop-opacity="1" stop-color="rgb(64.828491%, 64.828491%, 64.828491%)" offset="0.359375"/><stop stop-opacity="1" stop-color="rgb(65.042114%, 65.042114%, 65.042114%)" offset="0.363281"/><stop stop-opacity="1" stop-color="rgb(65.257263%, 65.257263%, 65.257263%)" offset="0.367188"/><stop stop-opacity="1" stop-color="rgb(65.470886%, 65.470886%, 65.470886%)" offset="0.371094"/><stop stop-opacity="1" stop-color="rgb(65.686035%, 65.686035%, 65.686035%)" offset="0.375"/><stop stop-opacity="1" stop-color="rgb(65.901184%, 65.901184%, 65.901184%)" offset="0.378906"/><stop stop-opacity="1" stop-color="rgb(66.116333%, 66.116333%, 66.116333%)" offset="0.382812"/><stop stop-opacity="1" stop-color="rgb(66.329956%, 66.329956%, 66.329956%)" offset="0.386719"/><stop stop-opacity="1" stop-color="rgb(66.545105%, 66.545105%, 66.545105%)" offset="0.390625"/><stop stop-opacity="1" stop-color="rgb(66.758728%, 66.758728%, 66.758728%)" offset="0.394531"/><stop stop-opacity="1" stop-color="rgb(66.973877%, 66.973877%, 66.973877%)" offset="0.398438"/><stop stop-opacity="1" stop-color="rgb(67.1875%, 67.1875%, 67.1875%)" offset="0.402344"/><stop stop-opacity="1" stop-color="rgb(67.402649%, 67.402649%, 67.402649%)" offset="0.40625"/><stop stop-opacity="1" stop-color="rgb(67.616272%, 67.616272%, 67.616272%)" offset="0.410156"/><stop stop-opacity="1" stop-color="rgb(67.831421%, 67.831421%, 67.831421%)" offset="0.414063"/><stop stop-opacity="1" stop-color="rgb(68.045044%, 68.045044%, 68.045044%)" offset="0.417969"/><stop stop-opacity="1" stop-color="rgb(68.260193%, 68.260193%, 68.260193%)" offset="0.421875"/><stop stop-opacity="1" stop-color="rgb(68.473816%, 68.473816%, 68.473816%)" offset="0.425781"/><stop stop-opacity="1" stop-color="rgb(68.688965%, 68.688965%, 68.688965%)" offset="0.429688"/><stop stop-opacity="1" stop-color="rgb(68.902588%, 68.902588%, 68.902588%)" offset="0.433594"/><stop stop-opacity="1" stop-color="rgb(69.117737%, 69.117737%, 69.117737%)" offset="0.4375"/><stop stop-opacity="1" stop-color="rgb(69.33136%, 69.33136%, 69.33136%)" offset="0.441406"/><stop stop-opacity="1" stop-color="rgb(69.546509%, 69.546509%, 69.546509%)" offset="0.445313"/><stop stop-opacity="1" stop-color="rgb(69.760132%, 69.760132%, 69.760132%)" offset="0.449219"/><stop stop-opacity="1" stop-color="rgb(69.975281%, 69.975281%, 69.975281%)" offset="0.453125"/><stop stop-opacity="1" stop-color="rgb(70.188904%, 70.188904%, 70.188904%)" offset="0.457031"/><stop stop-opacity="1" stop-color="rgb(70.404053%, 70.404053%, 70.404053%)" offset="0.460938"/><stop stop-opacity="1" stop-color="rgb(70.619202%, 70.619202%, 70.619202%)" offset="0.464844"/><stop stop-opacity="1" stop-color="rgb(70.834351%, 70.834351%, 70.834351%)" offset="0.46875"/><stop stop-opacity="1" stop-color="rgb(71.047974%, 71.047974%, 71.047974%)" offset="0.472656"/><stop stop-opacity="1" stop-color="rgb(71.263123%, 71.263123%, 71.263123%)" offset="0.476563"/><stop stop-opacity="1" stop-color="rgb(71.476746%, 71.476746%, 71.476746%)" offset="0.480469"/><stop stop-opacity="1" stop-color="rgb(71.691895%, 71.691895%, 71.691895%)" offset="0.484375"/><stop stop-opacity="1" stop-color="rgb(71.905518%, 71.905518%, 71.905518%)" offset="0.488281"/><stop stop-opacity="1" stop-color="rgb(72.120667%, 72.120667%, 72.120667%)" offset="0.492188"/><stop stop-opacity="1" stop-color="rgb(72.33429%, 72.33429%, 72.33429%)" offset="0.496094"/><stop stop-opacity="1" stop-color="rgb(72.549438%, 72.549438%, 72.549438%)" offset="0.5"/><stop stop-opacity="1" stop-color="rgb(72.763062%, 72.763062%, 72.763062%)" offset="0.503906"/><stop stop-opacity="1" stop-color="rgb(72.97821%, 72.97821%, 72.97821%)" offset="0.507812"/><stop stop-opacity="1" stop-color="rgb(73.191833%, 73.191833%, 73.191833%)" offset="0.511719"/><stop stop-opacity="1" stop-color="rgb(73.406982%, 73.406982%, 73.406982%)" offset="0.515625"/><stop stop-opacity="1" stop-color="rgb(73.620605%, 73.620605%, 73.620605%)" offset="0.519531"/><stop stop-opacity="1" stop-color="rgb(73.835754%, 73.835754%, 73.835754%)" offset="0.523438"/><stop stop-opacity="1" stop-color="rgb(74.049377%, 74.049377%, 74.049377%)" offset="0.527344"/><stop stop-opacity="1" stop-color="rgb(74.264526%, 74.264526%, 74.264526%)" offset="0.53125"/><stop stop-opacity="1" stop-color="rgb(74.478149%, 74.478149%, 74.478149%)" offset="0.535156"/><stop stop-opacity="1" stop-color="rgb(74.693298%, 74.693298%, 74.693298%)" offset="0.539062"/><stop stop-opacity="1" stop-color="rgb(74.906921%, 74.906921%, 74.906921%)" offset="0.542969"/><stop stop-opacity="1" stop-color="rgb(75.12207%, 75.12207%, 75.12207%)" offset="0.546875"/><stop stop-opacity="1" stop-color="rgb(75.335693%, 75.335693%, 75.335693%)" offset="0.550781"/><stop stop-opacity="1" stop-color="rgb(75.550842%, 75.550842%, 75.550842%)" offset="0.554688"/><stop stop-opacity="1" stop-color="rgb(75.765991%, 75.765991%, 75.765991%)" offset="0.558594"/><stop stop-opacity="1" stop-color="rgb(75.98114%, 75.98114%, 75.98114%)" offset="0.5625"/><stop stop-opacity="1" stop-color="rgb(76.194763%, 76.194763%, 76.194763%)" offset="0.566406"/><stop stop-opacity="1" stop-color="rgb(76.409912%, 76.409912%, 76.409912%)" offset="0.570313"/><stop stop-opacity="1" stop-color="rgb(76.623535%, 76.623535%, 76.623535%)" offset="0.574219"/><stop stop-opacity="1" stop-color="rgb(76.838684%, 76.838684%, 76.838684%)" offset="0.578125"/><stop stop-opacity="1" stop-color="rgb(77.052307%, 77.052307%, 77.052307%)" offset="0.582031"/><stop stop-opacity="1" stop-color="rgb(77.267456%, 77.267456%, 77.267456%)" offset="0.585938"/><stop stop-opacity="1" stop-color="rgb(77.481079%, 77.481079%, 77.481079%)" offset="0.589844"/><stop stop-opacity="1" stop-color="rgb(77.696228%, 77.696228%, 77.696228%)" offset="0.59375"/><stop stop-opacity="1" stop-color="rgb(77.909851%, 77.909851%, 77.909851%)" offset="0.597656"/><stop stop-opacity="1" stop-color="rgb(78.125%, 78.125%, 78.125%)" offset="0.601563"/><stop stop-opacity="1" stop-color="rgb(78.338623%, 78.338623%, 78.338623%)" offset="0.605469"/><stop stop-opacity="1" stop-color="rgb(78.553772%, 78.553772%, 78.553772%)" offset="0.609375"/><stop stop-opacity="1" stop-color="rgb(78.767395%, 78.767395%, 78.767395%)" offset="0.613281"/><stop stop-opacity="1" stop-color="rgb(78.982544%, 78.982544%, 78.982544%)" offset="0.617188"/><stop stop-opacity="1" stop-color="rgb(79.196167%, 79.196167%, 79.196167%)" offset="0.621094"/><stop stop-opacity="1" stop-color="rgb(79.411316%, 79.411316%, 79.411316%)" offset="0.625"/><stop stop-opacity="1" stop-color="rgb(79.624939%, 79.624939%, 79.624939%)" offset="0.628906"/><stop stop-opacity="1" stop-color="rgb(79.840088%, 79.840088%, 79.840088%)" offset="0.632813"/><stop stop-opacity="1" stop-color="rgb(80.053711%, 80.053711%, 80.053711%)" offset="0.636719"/><stop stop-opacity="1" stop-color="rgb(80.26886%, 80.26886%, 80.26886%)" offset="0.640625"/><stop stop-opacity="1" stop-color="rgb(80.484009%, 80.484009%, 80.484009%)" offset="0.644531"/><stop stop-opacity="1" stop-color="rgb(80.699158%, 80.699158%, 80.699158%)" offset="0.648438"/><stop stop-opacity="1" stop-color="rgb(80.912781%, 80.912781%, 80.912781%)" offset="0.652344"/><stop stop-opacity="1" stop-color="rgb(81.12793%, 81.12793%, 81.12793%)" offset="0.65625"/><stop stop-opacity="1" stop-color="rgb(81.341553%, 81.341553%, 81.341553%)" offset="0.660156"/><stop stop-opacity="1" stop-color="rgb(81.556702%, 81.556702%, 81.556702%)" offset="0.664063"/><stop stop-opacity="1" stop-color="rgb(81.770325%, 81.770325%, 81.770325%)" offset="0.667969"/><stop stop-opacity="1" stop-color="rgb(81.985474%, 81.985474%, 81.985474%)" offset="0.671875"/><stop stop-opacity="1" stop-color="rgb(82.199097%, 82.199097%, 82.199097%)" offset="0.675781"/><stop stop-opacity="1" stop-color="rgb(82.414246%, 82.414246%, 82.414246%)" offset="0.679688"/><stop stop-opacity="1" stop-color="rgb(82.627869%, 82.627869%, 82.627869%)" offset="0.683594"/><stop stop-opacity="1" stop-color="rgb(82.843018%, 82.843018%, 82.843018%)" offset="0.6875"/><stop stop-opacity="1" stop-color="rgb(83.056641%, 83.056641%, 83.056641%)" offset="0.691406"/><stop stop-opacity="1" stop-color="rgb(83.27179%, 83.27179%, 83.27179%)" offset="0.695312"/><stop stop-opacity="1" stop-color="rgb(83.485413%, 83.485413%, 83.485413%)" offset="0.699219"/><stop stop-opacity="1" stop-color="rgb(83.700562%, 83.700562%, 83.700562%)" offset="0.703125"/><stop stop-opacity="1" stop-color="rgb(83.914185%, 83.914185%, 83.914185%)" offset="0.707031"/><stop stop-opacity="1" stop-color="rgb(84.129333%, 84.129333%, 84.129333%)" offset="0.710938"/><stop stop-opacity="1" stop-color="rgb(84.342957%, 84.342957%, 84.342957%)" offset="0.714844"/><stop stop-opacity="1" stop-color="rgb(84.558105%, 84.558105%, 84.558105%)" offset="0.71875"/><stop stop-opacity="1" stop-color="rgb(84.771729%, 84.771729%, 84.771729%)" offset="0.722656"/><stop stop-opacity="1" stop-color="rgb(84.986877%, 84.986877%, 84.986877%)" offset="0.726562"/><stop stop-opacity="1" stop-color="rgb(85.202026%, 85.202026%, 85.202026%)" offset="0.730469"/><stop stop-opacity="1" stop-color="rgb(85.417175%, 85.417175%, 85.417175%)" offset="0.734375"/><stop stop-opacity="1" stop-color="rgb(85.630798%, 85.630798%, 85.630798%)" offset="0.738281"/><stop stop-opacity="1" stop-color="rgb(85.845947%, 85.845947%, 85.845947%)" offset="0.742188"/><stop stop-opacity="1" stop-color="rgb(86.05957%, 86.05957%, 86.05957%)" offset="0.746094"/><stop stop-opacity="1" stop-color="rgb(86.274719%, 86.274719%, 86.274719%)" offset="0.75"/><stop stop-opacity="1" stop-color="rgb(86.488342%, 86.488342%, 86.488342%)" offset="0.753906"/><stop stop-opacity="1" stop-color="rgb(86.703491%, 86.703491%, 86.703491%)" offset="0.757812"/><stop stop-opacity="1" stop-color="rgb(86.917114%, 86.917114%, 86.917114%)" offset="0.761719"/><stop stop-opacity="1" stop-color="rgb(87.132263%, 87.132263%, 87.132263%)" offset="0.765625"/><stop stop-opacity="1" stop-color="rgb(87.345886%, 87.345886%, 87.345886%)" offset="0.769531"/><stop stop-opacity="1" stop-color="rgb(87.561035%, 87.561035%, 87.561035%)" offset="0.773438"/><stop stop-opacity="1" stop-color="rgb(87.774658%, 87.774658%, 87.774658%)" offset="0.777344"/><stop stop-opacity="1" stop-color="rgb(87.989807%, 87.989807%, 87.989807%)" offset="0.78125"/><stop stop-opacity="1" stop-color="rgb(88.20343%, 88.20343%, 88.20343%)" offset="0.785156"/><stop stop-opacity="1" stop-color="rgb(88.418579%, 88.418579%, 88.418579%)" offset="0.789062"/><stop stop-opacity="1" stop-color="rgb(88.632202%, 88.632202%, 88.632202%)" offset="0.792969"/><stop stop-opacity="1" stop-color="rgb(88.847351%, 88.847351%, 88.847351%)" offset="0.796875"/><stop stop-opacity="1" stop-color="rgb(89.060974%, 89.060974%, 89.060974%)" offset="0.800781"/><stop stop-opacity="1" stop-color="rgb(89.276123%, 89.276123%, 89.276123%)" offset="0.804688"/><stop stop-opacity="1" stop-color="rgb(89.489746%, 89.489746%, 89.489746%)" offset="0.808594"/><stop stop-opacity="1" stop-color="rgb(89.704895%, 89.704895%, 89.704895%)" offset="0.8125"/><stop stop-opacity="1" stop-color="rgb(89.918518%, 89.918518%, 89.918518%)" offset="0.816406"/><stop stop-opacity="1" stop-color="rgb(90.133667%, 90.133667%, 90.133667%)" offset="0.820312"/><stop stop-opacity="1" stop-color="rgb(90.348816%, 90.348816%, 90.348816%)" offset="0.824219"/><stop stop-opacity="1" stop-color="rgb(90.563965%, 90.563965%, 90.563965%)" offset="0.828125"/><stop stop-opacity="1" stop-color="rgb(90.777588%, 90.777588%, 90.777588%)" offset="0.832031"/><stop stop-opacity="1" stop-color="rgb(90.992737%, 90.992737%, 90.992737%)" offset="0.835937"/><stop stop-opacity="1" stop-color="rgb(91.20636%, 91.20636%, 91.20636%)" offset="0.839844"/><stop stop-opacity="1" stop-color="rgb(91.421509%, 91.421509%, 91.421509%)" offset="0.84375"/><stop stop-opacity="1" stop-color="rgb(91.635132%, 91.635132%, 91.635132%)" offset="0.847656"/><stop stop-opacity="1" stop-color="rgb(91.850281%, 91.850281%, 91.850281%)" offset="0.851562"/><stop stop-opacity="1" stop-color="rgb(92.063904%, 92.063904%, 92.063904%)" offset="0.855469"/><stop stop-opacity="1" stop-color="rgb(92.279053%, 92.279053%, 92.279053%)" offset="0.859375"/><stop stop-opacity="1" stop-color="rgb(92.492676%, 92.492676%, 92.492676%)" offset="0.863281"/><stop stop-opacity="1" stop-color="rgb(92.707825%, 92.707825%, 92.707825%)" offset="0.867187"/><stop stop-opacity="1" stop-color="rgb(92.921448%, 92.921448%, 92.921448%)" offset="0.871094"/><stop stop-opacity="1" stop-color="rgb(93.136597%, 93.136597%, 93.136597%)" offset="0.875"/><stop stop-opacity="1" stop-color="rgb(93.35022%, 93.35022%, 93.35022%)" offset="0.878906"/><stop stop-opacity="1" stop-color="rgb(93.565369%, 93.565369%, 93.565369%)" offset="0.882812"/><stop stop-opacity="1" stop-color="rgb(93.778992%, 93.778992%, 93.778992%)" offset="0.886719"/><stop stop-opacity="1" stop-color="rgb(93.994141%, 93.994141%, 93.994141%)" offset="0.890625"/><stop stop-opacity="1" stop-color="rgb(94.207764%, 94.207764%, 94.207764%)" offset="0.894531"/><stop stop-opacity="1" stop-color="rgb(94.422913%, 94.422913%, 94.422913%)" offset="0.898437"/><stop stop-opacity="1" stop-color="rgb(94.636536%, 94.636536%, 94.636536%)" offset="0.902344"/><stop stop-opacity="1" stop-color="rgb(94.851685%, 94.851685%, 94.851685%)" offset="0.90625"/><stop stop-opacity="1" stop-color="rgb(95.066833%, 95.066833%, 95.066833%)" offset="0.910156"/><stop stop-opacity="1" stop-color="rgb(95.281982%, 95.281982%, 95.281982%)" offset="0.914062"/><stop stop-opacity="1" stop-color="rgb(95.495605%, 95.495605%, 95.495605%)" offset="0.917969"/><stop stop-opacity="1" stop-color="rgb(95.710754%, 95.710754%, 95.710754%)" offset="0.921875"/><stop stop-opacity="1" stop-color="rgb(95.924377%, 95.924377%, 95.924377%)" offset="0.925781"/><stop stop-opacity="1" stop-color="rgb(96.139526%, 96.139526%, 96.139526%)" offset="0.929687"/><stop stop-opacity="1" stop-color="rgb(96.353149%, 96.353149%, 96.353149%)" offset="0.933594"/><stop stop-opacity="1" stop-color="rgb(96.568298%, 96.568298%, 96.568298%)" offset="0.9375"/><stop stop-opacity="1" stop-color="rgb(96.781921%, 96.781921%, 96.781921%)" offset="0.941406"/><stop stop-opacity="1" stop-color="rgb(96.99707%, 96.99707%, 96.99707%)" offset="0.945312"/><stop stop-opacity="1" stop-color="rgb(97.210693%, 97.210693%, 97.210693%)" offset="0.949219"/><stop stop-opacity="1" stop-color="rgb(97.425842%, 97.425842%, 97.425842%)" offset="0.953125"/><stop stop-opacity="1" stop-color="rgb(97.639465%, 97.639465%, 97.639465%)" offset="0.957031"/><stop stop-opacity="1" stop-color="rgb(97.854614%, 97.854614%, 97.854614%)" offset="0.960938"/><stop stop-opacity="1" stop-color="rgb(98.068237%, 98.068237%, 98.068237%)" offset="0.964844"/><stop stop-opacity="1" stop-color="rgb(98.283386%, 98.283386%, 98.283386%)" offset="0.96875"/><stop stop-opacity="1" stop-color="rgb(98.497009%, 98.497009%, 98.497009%)" offset="0.972656"/><stop stop-opacity="1" stop-color="rgb(98.712158%, 98.712158%, 98.712158%)" offset="0.976562"/><stop stop-opacity="1" stop-color="rgb(98.925781%, 98.925781%, 98.925781%)" offset="0.980469"/><stop stop-opacity="1" stop-color="rgb(99.14093%, 99.14093%, 99.14093%)" offset="0.984375"/><stop stop-opacity="1" stop-color="rgb(99.354553%, 99.354553%, 99.354553%)" offset="0.988281"/><stop stop-opacity="1" stop-color="rgb(99.569702%, 99.569702%, 99.569702%)" offset="0.992188"/><stop stop-opacity="1" stop-color="rgb(99.783325%, 99.783325%, 99.783325%)" offset="0.996094"/><stop stop-opacity="1" stop-color="rgb(99.998474%, 99.998474%, 99.998474%)" offset="1"/></linearGradient><clipPath id="ca7df60d3a"><path d="M 24 55 L 96 55 L 96 63.5 L 24 63.5 Z M 24 55 " clip-rule="nonzero"/></clipPath></defs><g clip-path="url(#a766f760c0)"><path fill="#ffffff" d="M 0.234375 0 L 119.765625 0 L 119.765625 70.222656 L 0.234375 70.222656 Z M 0.234375 0 " fill-opacity="1" fill-rule="nonzero"/><path fill="#ffffff" d="M 0.234375 0 L 119.765625 0 L 119.765625 63.5 L 0.234375 63.5 Z M 0.234375 0 " fill-opacity="1" fill-rule="nonzero"/><path fill="#211717" d="M 0.234375 0 L 119.765625 0 L 119.765625 63.5 L 0.234375 63.5 Z M 0.234375 0 " fill-opacity="1" fill-rule="nonzero"/></g><g clip-path="url(#8535e30594)"><g clip-path="url(#1842890a34)"><path fill="url(#2caca909b6)" d="M 43.417969 2.273438 L 43.417969 22.441406 L 71.738281 22.441406 L 71.738281 2.273438 Z M 43.417969 2.273438 " fill-rule="nonzero"/></g></g><path stroke-linecap="butt" transform="matrix(0.376421, 0, 0, 0.376421, 47.342653, 48.993186)" fill="none" stroke-linejoin="miter" d="M 2.752911 12.003934 L 11.386861 12.003934 L 12.351954 9.108655 L 12.206671 9.108655 C 11.822709 9.969974 11.220823 10.883181 9.913278 10.976577 L 3.365174 10.976577 C 5.388756 7.832242 12.28969 7.479412 12.28969 3.390739 C 12.28969 0.817157 9.809504 -0.303596 6.955735 -0.303596 C 5.067058 -0.303596 4.070833 0.194517 4.070833 0.194517 L 3.406683 2.519042 L 3.551966 2.519042 C 4.247248 0.910553 5.969887 -0.00265287 7.526489 -0.00265287 C 10.494409 -0.00265287 11.034031 2.321872 11.034031 3.525644 C 11.034031 7.500167 2.752911 8.517146 2.752911 12.003934 Z M 20.747225 12.294499 C 23.953824 12.294499 25.479293 9.482239 25.479293 5.995452 C 25.479293 2.519042 23.953824 -0.303596 20.747225 -0.303596 C 17.551003 -0.303596 16.025533 2.519042 16.025533 5.995452 C 16.025533 9.482239 17.551003 12.294499 20.747225 12.294499 Z M 17.218928 5.995452 C 17.218928 2.685079 18.4227 -0.0545396 20.747225 -0.0545396 C 23.092504 -0.0545396 24.275521 2.685079 24.275521 5.995452 C 24.275521 9.305824 23.092504 12.05582 20.747225 12.05582 C 18.4227 12.05582 17.218928 9.305824 17.218928 5.995452 Z M 28.665138 12.003934 L 37.309465 12.003934 L 38.274558 9.108655 L 38.129275 9.108655 C 37.745314 9.969974 37.143428 10.883181 35.835882 10.976577 L 29.277401 10.976577 C 31.31136 7.832242 38.212294 7.479412 38.212294 3.390739 C 38.212294 0.817157 35.721732 -0.303596 32.867962 -0.303596 C 30.989663 -0.303596 29.993438 0.194517 29.993438 0.194517 L 29.329288 2.519042 L 29.474571 2.519042 C 30.169853 0.910553 31.882114 -0.00265287 33.449093 -0.00265287 C 36.406636 -0.00265287 36.946258 2.321872 36.946258 3.525644 C 36.946258 7.500167 28.665138 8.517146 28.665138 12.003934 Z M 46.285867 12.294499 C 48.558506 12.294499 51.329256 10.955822 51.329256 8.569033 C 51.329256 6.62847 49.969824 5.45583 47.500017 5.45583 C 47.500017 5.45583 50.633974 5.123755 50.633974 2.809607 C 50.633974 0.80678 48.745298 -0.303596 45.559453 -0.303596 C 43.670777 -0.303596 42.674552 0.194517 42.674552 0.194517 L 42.010402 2.519042 L 42.155685 2.519042 C 42.850967 0.910553 44.573606 -0.0337849 46.130207 -0.0337849 C 48.330204 -0.0337849 49.450957 1.149232 49.450957 2.539796 C 49.450957 3.951115 48.382091 5.414321 46.493414 5.414321 C 46.057566 5.414321 45.507567 5.331302 45.206624 5.227528 L 45.206624 5.746396 C 45.61134 5.642622 46.047188 5.642622 46.493414 5.642622 C 48.413223 5.642622 50.135862 5.995452 50.135862 8.413373 C 50.135862 10.364313 48.724543 12.003934 46.400018 12.003934 C 44.106625 12.003934 42.508514 10.167144 41.844364 8.247335 L 41.699081 8.247335 L 41.699081 11.018086 C 43.048136 11.661481 44.386813 12.294499 46.285867 12.294499 Z M 46.285867 12.294499 " stroke="#ffffff" stroke-width="0.9" stroke-opacity="1" stroke-miterlimit="4"/><g fill="#ffffff" fill-opacity="1"><g transform="translate(48.377811, 53.510238)"><g><path d="M 0 0 L 3.253906 0 L 3.613281 -1.089844 L 3.558594 -1.089844 C 3.414062 -0.761719 3.1875 -0.421875 2.695312 -0.382812 L 0.230469 -0.382812 C 0.992188 -1.566406 3.589844 -1.703125 3.589844 -3.238281 C 3.589844 -4.210938 2.65625 -4.628906 1.582031 -4.628906 C 0.871094 -4.628906 0.496094 -4.445312 0.496094 -4.445312 L 0.25 -3.570312 L 0.300781 -3.570312 C 0.566406 -4.171875 1.210938 -4.515625 1.796875 -4.515625 C 2.914062 -4.515625 3.117188 -3.644531 3.117188 -3.1875 C 3.117188 -1.695312 0 -1.308594 0 0 Z M 0 0 "/></g></g></g><g fill="#ffffff" fill-opacity="1"><g transform="translate(53.102676, 53.510238)"><g><path d="M 2.050781 0.113281 C 3.257812 0.113281 3.832031 -0.949219 3.832031 -2.257812 C 3.832031 -3.570312 3.257812 -4.628906 2.050781 -4.628906 C 0.84375 -4.628906 0.269531 -3.570312 0.269531 -2.257812 C 0.269531 -0.949219 0.84375 0.113281 2.050781 0.113281 Z M 0.722656 -2.257812 C 0.722656 -3.503906 1.175781 -4.539062 2.050781 -4.539062 C 2.929688 -4.539062 3.378906 -3.503906 3.378906 -2.257812 C 3.378906 -1.011719 2.929688 0.0234375 2.050781 0.0234375 C 1.175781 0.0234375 0.722656 -1.011719 0.722656 -2.257812 Z M 0.722656 -2.257812 "/></g></g></g><g fill="#ffffff" fill-opacity="1"><g transform="translate(58.134699, 53.510238)"><g><path d="M 0 0 L 3.253906 0 L 3.613281 -1.089844 L 3.558594 -1.089844 C 3.414062 -0.761719 3.1875 -0.421875 2.695312 -0.382812 L 0.230469 -0.382812 C 0.992188 -1.566406 3.589844 -1.703125 3.589844 -3.238281 C 3.589844 -4.210938 2.65625 -4.628906 1.582031 -4.628906 C 0.871094 -4.628906 0.496094 -4.445312 0.496094 -4.445312 L 0.25 -3.570312 L 0.300781 -3.570312 C 0.566406 -4.171875 1.210938 -4.515625 1.796875 -4.515625 C 2.914062 -4.515625 3.117188 -3.644531 3.117188 -3.1875 C 3.117188 -1.695312 0 -1.308594 0 0 Z M 0 0 "/></g></g></g><g fill="#ffffff" fill-opacity="1"><g transform="translate(62.859565, 53.510238)"><g><path d="M 1.90625 0.113281 C 2.761719 0.113281 3.804688 -0.394531 3.804688 -1.292969 C 3.804688 -2.023438 3.292969 -2.460938 2.363281 -2.460938 C 2.363281 -2.460938 3.542969 -2.589844 3.542969 -3.460938 C 3.542969 -4.214844 2.832031 -4.628906 1.628906 -4.628906 C 0.921875 -4.628906 0.546875 -4.445312 0.546875 -4.445312 L 0.296875 -3.570312 L 0.351562 -3.570312 C 0.613281 -4.171875 1.261719 -4.53125 1.847656 -4.53125 C 2.675781 -4.53125 3.097656 -4.082031 3.097656 -3.558594 C 3.097656 -3.03125 2.695312 -2.480469 1.984375 -2.480469 C 1.820312 -2.480469 1.613281 -2.511719 1.5 -2.546875 L 1.5 -2.351562 C 1.652344 -2.394531 1.816406 -2.394531 1.984375 -2.394531 C 2.707031 -2.394531 3.355469 -2.257812 3.355469 -1.351562 C 3.355469 -0.613281 2.824219 0 1.953125 0 C 1.085938 0 0.484375 -0.691406 0.234375 -1.414062 L 0.179688 -1.414062 L 0.179688 -0.371094 C 0.6875 -0.125 1.191406 0.113281 1.90625 0.113281 Z M 1.90625 0.113281 "/></g></g></g><path stroke-linecap="round" transform="matrix(0.75042, 0, 0, 0.74707, 27.755671, 50.912033)" fill="none" stroke-linejoin="miter" d="M 0.502574 0.499449 L 16.920456 0.499449 " stroke="#737373" stroke-width="1" stroke-opacity="1" stroke-miterlimit="4"/><path stroke-linecap="butt" transform="matrix(0.75042, 0, 0, 0.74707, 43.455748, 51.285568)" fill="none" stroke-linejoin="miter" d="M -0.49801 -0.000551363 C -0.49801 0.198141 -0.539653 0.391606 -0.612529 0.574612 C -0.69061 0.757619 -0.799924 0.91971 -0.94047 1.060887 C -1.081016 1.202063 -1.242384 1.311867 -1.424574 1.38507 C -1.611969 1.463501 -1.799364 1.500102 -2.002375 1.500102 C -2.200181 1.500102 -2.392781 1.463501 -2.574971 1.38507 C -2.75716 1.311867 -2.918528 1.202063 -3.059074 1.060887 C -3.199621 0.91971 -3.308934 0.757619 -3.387016 0.574612 C -3.459892 0.391606 -3.501535 0.198141 -3.501535 -0.000551363 C -3.501535 -0.199244 -3.459892 -0.392708 -3.387016 -0.575715 C -3.308934 -0.758721 -3.199621 -0.920813 -3.059074 -1.061989 C -2.918528 -1.203166 -2.75716 -1.307741 -2.574971 -1.386172 C -2.392781 -1.459375 -2.200181 -1.501205 -2.002375 -1.501205 C -1.799364 -1.501205 -1.611969 -1.459375 -1.424574 -1.386172 C -1.242384 -1.307741 -1.081016 -1.203166 -0.94047 -1.061989 C -0.799924 -0.920813 -0.69061 -0.758721 -0.612529 -0.575715 C -0.539653 -0.392708 -0.49801 -0.199244 -0.49801 -0.000551363 Z M -0.49801 -0.000551363 " stroke="#737373" stroke-width="1" stroke-opacity="1" stroke-miterlimit="4"/><path stroke-linecap="round" transform="matrix(-0.75042, -0.000000000000000092, 0.000000000000000091, -0.74707, 87.550153, 52.032638)" fill="none" stroke-linejoin="miter" d="M 0.498883 0.498591 L 16.92197 0.498591 " stroke="#737373" stroke-width="1" stroke-opacity="1" stroke-miterlimit="4"/><path stroke-linecap="butt" transform="matrix(-0.75042, -0.000000000000000092, 0.000000000000000091, -0.74707, 71.850071, 51.659103)" fill="none" stroke-linejoin="miter" d="M -0.501707 -0.00140947 C -0.501707 0.197283 -0.538145 0.390747 -0.616226 0.573754 C -0.689102 0.756761 -0.798416 0.918852 -0.938962 1.060029 C -1.079508 1.201205 -1.240876 1.311009 -1.428271 1.384212 C -1.610461 1.462643 -1.803061 1.499244 -2.000867 1.499244 C -2.198673 1.499244 -2.391273 1.462643 -2.573463 1.384212 C -2.755652 1.311009 -2.922226 1.201205 -3.062772 1.060029 C -3.203318 0.918852 -3.307426 0.756761 -3.385508 0.573754 C -3.463589 0.390747 -3.500027 0.197283 -3.500027 -0.00140947 C -3.500027 -0.200102 -3.463589 -0.388338 -3.385508 -0.576573 C -3.307426 -0.759579 -3.203318 -0.921671 -3.062772 -1.062847 C -2.922226 -1.198795 -2.755652 -1.308599 -2.573463 -1.387031 C -2.391273 -1.460233 -2.198673 -1.502063 -2.000867 -1.502063 C -1.803061 -1.502063 -1.610461 -1.460233 -1.428271 -1.387031 C -1.240876 -1.308599 -1.079508 -1.198795 -0.938962 -1.062847 C -0.798416 -0.921671 -0.689102 -0.759579 -0.616226 -0.576573 C -0.538145 -0.388338 -0.501707 -0.200102 -0.501707 -0.00140947 Z M -0.501707 -0.00140947 " stroke="#737373" stroke-width="1" stroke-opacity="1" stroke-miterlimit="4"/><path stroke-linecap="butt" transform="matrix(0.688727, 0, 0, 0.688727, 12.153761, 25.645454)" fill="none" stroke-linejoin="miter" d="M 15.67452 5.999318 C 15.67452 9.481742 18.181411 12.300577 21.78294 12.300577 C 25.378798 12.300577 26.184179 10.621754 26.184179 10.621754 L 26.184179 8.988304 L 26.042387 8.988304 C 25.4185 10.667127 24.289831 11.999977 22.593993 11.999977 C 19.156943 11.999977 16.672739 8.699047 16.672739 5.13722 C 16.672739 2.998989 17.954543 0.0497053 21.385921 0.0497053 C 22.945639 0.0497053 24.431624 0.804041 25.180288 2.516895 L 25.322081 2.516895 L 24.675507 -0.00134001 C 24.675507 -0.00134001 23.665944 -0.296268 21.78294 -0.296268 C 18.181411 -0.296268 15.67452 2.516895 15.67452 5.999318 Z M 36.540703 12.300577 C 40.142232 12.300577 42.649123 9.481742 42.649123 5.999318 C 42.649123 2.516895 40.142232 -0.296268 36.540703 -0.296268 C 32.939173 -0.296268 30.432282 2.516895 30.432282 5.999318 C 30.432282 9.481742 32.939173 12.300577 36.540703 12.300577 Z M 31.691399 5.999318 C 31.691399 2.687046 33.687838 -0.00134001 36.540703 -0.00134001 C 39.393568 -0.00134001 41.390006 2.687046 41.390006 5.999318 C 41.390006 9.311591 39.393568 11.999977 36.540703 11.999977 C 33.687838 11.999977 31.691399 9.311591 31.691399 5.999318 Z M 49.080831 11.999977 L 49.080831 11.858184 C 48.661125 11.858184 48.167687 11.580271 48.167687 10.882652 C 48.167687 10.020553 49.143219 4.83662 49.886212 1.66614 L 51.962054 7.093956 C 52.512209 8.54024 52.897885 9.657565 53.073707 10.116972 C 53.147439 10.292795 53.232515 10.417572 53.402666 10.417572 C 53.78267 10.417572 54.08327 9.612191 54.911338 9.527115 L 54.911338 9.362636 L 54.661783 9.362636 C 54.298794 9.362636 54.111628 9.169798 53.907447 8.665017 C 53.88476 8.602628 53.856402 8.54024 53.833715 8.494866 C 54.934025 5.857526 55.847168 3.339291 56.834044 0.622547 C 57.707486 4.859307 58.597943 9.935478 58.597943 10.848621 C 58.597943 11.540569 58.104505 11.858184 57.684799 11.858184 L 57.684799 11.999977 L 61.36006 11.999977 L 61.36006 11.858184 C 60.911996 11.846841 60.276766 11.398776 60.049898 10.400557 C 59.295562 7.093956 58.802124 4.524676 58.132863 0.781355 C 58.019429 0.180154 58.705705 0.146124 59.125411 0.146124 L 59.125411 -0.00134001 L 57.214048 -0.00134001 C 56.879418 -0.00134001 56.726282 0.202841 56.65255 0.407022 C 55.705376 3.106751 54.769545 5.579612 53.703266 8.171579 C 52.631315 5.579612 51.695484 3.106751 50.74831 0.407022 C 50.674578 0.202841 50.521442 -0.00134001 50.186812 -0.00134001 L 48.41157 -0.00134001 L 48.41157 0.146124 C 48.825604 0.146124 49.199936 0.0950789 49.489193 0.758668 L 49.682031 1.20106 C 48.939038 4.513333 48.4456 7.235749 47.725294 10.400557 C 47.498426 11.398776 46.863196 11.846841 46.415132 11.858184 L 46.415132 11.999977 Z M 67.910874 11.999977 L 67.910874 11.858184 C 66.99773 11.858184 66.99773 10.825935 66.99773 10.236078 L 66.99773 4.921695 L 68.512074 4.921695 C 70.826127 4.921695 72.124946 4.796918 72.516294 5.999318 L 72.663758 5.999318 L 73.128837 4.677812 L 66.99773 4.677812 L 66.99773 0.242543 L 71.557777 0.242543 C 72.924656 0.242543 74.10437 0.741653 74.10437 1.881664 L 74.246162 1.881664 L 74.246162 -0.00134001 L 64.887858 -0.00134001 L 64.887858 0.146124 C 65.79533 0.146124 65.79533 1.172702 65.79533 1.762559 L 65.79533 10.236078 C 65.79533 10.825935 65.79533 11.858184 64.887858 11.858184 L 64.887858 11.999977 Z M 84.602686 12.300577 C 88.198543 12.300577 90.705435 9.481742 90.705435 5.999318 C 90.705435 2.516895 88.198543 -0.296268 84.602686 -0.296268 C 81.001156 -0.296268 78.494265 2.516895 78.494265 5.999318 C 78.494265 9.481742 81.001156 12.300577 84.602686 12.300577 Z M 79.753383 5.999318 C 79.753383 2.687046 81.744149 -0.00134001 84.602686 -0.00134001 C 87.455551 -0.00134001 89.446317 2.687046 89.446317 5.999318 C 89.446317 9.311591 87.455551 11.999977 84.602686 11.999977 C 81.744149 11.999977 79.753383 9.311591 79.753383 5.999318 Z M 95.866681 1.762559 L 95.866681 10.236078 C 95.866681 10.825935 95.866681 11.858184 94.959209 11.858184 L 94.959209 11.999977 L 97.982225 11.999977 L 97.982225 11.858184 C 97.069082 11.858184 97.069082 10.825935 97.069082 10.236078 L 97.069082 6.447383 L 98.821637 6.447383 C 99.326418 6.492756 99.519256 6.764998 100.477773 8.233968 C 101.266139 9.447712 102.196298 10.990414 102.196298 11.342059 C 102.196298 11.750422 101.833309 11.858184 101.617785 11.858184 L 101.617785 11.999977 L 105.230658 11.999977 L 105.230658 11.858184 C 104.833639 11.858184 104.487665 11.688033 104.158706 11.398776 C 103.631238 10.928025 103.154815 10.128316 102.50257 9.192485 C 101.078973 7.127986 101.005241 6.577832 100.511803 6.447383 L 101.175392 6.447383 C 103.563178 6.447383 104.691846 4.825276 104.691846 3.157797 C 104.691846 1.558377 103.489446 -0.00134001 101.198079 -0.00134001 L 94.959209 -0.00134001 L 94.959209 0.146124 C 95.866681 0.146124 95.866681 1.172702 95.866681 1.762559 Z M 100.296279 0.242543 C 102.43451 0.242543 103.500789 1.677483 103.500789 3.191827 C 103.500789 4.762888 102.43451 6.192156 100.335981 6.192156 L 97.069082 6.192156 L 97.069082 0.242543 Z M 108.423824 1.881664 C 108.423824 0.741653 109.597866 0.242543 110.964746 0.242543 L 112.127444 0.242543 L 112.127444 10.236078 C 112.127444 10.825935 112.127444 11.858184 111.219972 11.858184 L 111.219972 11.999977 L 114.242988 11.999977 L 114.242988 11.858184 C 113.329845 11.858184 113.329845 10.825935 113.329845 10.236078 L 113.329845 0.242543 L 114.492543 0.242543 C 115.865094 0.242543 117.039136 0.741653 117.039136 1.881664 L 117.180929 1.881664 L 117.180929 -0.00134001 L 108.27636 -0.00134001 L 108.27636 1.881664 Z M 108.423824 1.881664 " stroke="#808080" stroke-width="0.9" stroke-opacity="1" stroke-miterlimit="4"/><path stroke-linecap="butt" transform="matrix(0.688727, 0, 0, 0.688727, 12.153761, 25.645454)" fill="none" stroke-linejoin="miter" d="M 38.951175 27.999841 L 47.470068 27.999841 L 48.286793 25.19235 L 48.139329 25.19235 C 47.396336 26.905203 45.7402 27.76163 44.180482 27.76163 L 40.544923 27.76163 L 47.997536 15.998525 L 39.86999 15.998525 L 39.223417 18.516759 L 39.370881 18.516759 C 40.113873 16.803906 41.599859 16.242408 43.159576 16.242408 L 46.426475 16.242408 Z M 58.643316 28.300441 C 62.239174 28.300441 64.746065 25.481607 64.746065 21.999183 C 64.746065 18.516759 62.239174 15.703596 58.643316 15.703596 C 55.041787 15.703596 52.534896 18.516759 52.534896 21.999183 C 52.534896 25.481607 55.041787 28.300441 58.643316 28.300441 Z M 53.794013 21.999183 C 53.794013 18.68691 55.78478 15.998525 58.643316 15.998525 C 61.496181 15.998525 63.486948 18.68691 63.486948 21.999183 C 63.486948 25.311456 61.496181 27.999841 58.643316 27.999841 C 55.78478 27.999841 53.794013 25.311456 53.794013 21.999183 Z M 68.99984 27.858049 L 68.99984 27.999841 L 72.561667 27.999841 L 72.561667 27.858049 C 71.189116 27.79566 70.616274 27.075354 70.616274 25.657429 L 70.616274 16.974057 L 71.313893 17.966605 L 77.507389 27.721928 L 77.84202 28.164321 C 77.91008 28.266411 78.006499 28.300441 78.10859 28.300441 C 78.187993 28.300441 78.284412 28.266411 78.369488 28.204023 L 79.798756 27.290879 L 79.713681 27.19446 C 79.339348 27.302222 79.004718 27.211475 78.681431 26.967592 L 78.681431 17.762423 C 78.681431 17.172567 78.681431 16.145989 79.594575 16.145989 L 79.594575 15.998525 L 76.134838 15.998525 L 76.134838 16.145989 C 78.307099 16.145989 78.380831 18.408997 78.380831 18.998854 L 78.380831 26.706694 C 78.131276 26.440124 77.853363 26.12818 77.626495 25.765192 L 71.63718 16.299125 C 71.518075 16.117631 71.291207 15.998525 71.07001 15.998525 L 69.130289 15.998525 L 69.130289 16.145989 C 69.63507 16.145989 69.969701 16.168676 70.315674 16.565695 L 70.315674 26.235943 C 70.315674 26.8258 69.907312 27.858049 68.99984 27.858049 Z M 83.802976 27.858049 L 83.802976 27.999841 L 92.673514 27.999841 L 93.66039 25.215037 L 93.512926 25.215037 C 93.047847 26.269973 91.533503 27.76163 89.071985 27.76163 L 85.91852 27.76163 L 85.91852 20.92156 L 86.973456 20.92156 C 89.298853 20.92156 90.586329 20.796783 90.994691 21.999183 L 91.136484 21.999183 L 91.601563 20.677677 L 85.91852 20.677677 L 85.91852 16.242408 L 88.975566 16.242408 C 90.342446 16.242408 92.287839 16.299125 93.019488 17.881529 L 93.166952 17.881529 L 93.166952 15.998525 L 83.802976 15.998525 L 83.802976 16.145989 C 84.71612 16.145989 84.71612 17.172567 84.71612 17.762423 L 84.71612 26.235943 C 84.71612 26.8258 84.71612 27.858049 83.802976 27.858049 Z M 83.802976 27.858049 " stroke="#808080" stroke-width="0.9" stroke-opacity="1" stroke-miterlimit="4"/><g fill="#ffffff" fill-opacity="1"><g transform="translate(22.452375, 33.910172)"><g><path d="M 0.496094 -4.132812 C 0.496094 -1.734375 2.222656 0.207031 4.703125 0.207031 C 7.183594 0.207031 7.734375 -0.949219 7.734375 -0.949219 L 7.734375 -2.074219 L 7.636719 -2.074219 C 7.207031 -0.917969 6.429688 0 5.265625 0 C 2.894531 0 1.183594 -2.273438 1.183594 -4.726562 C 1.183594 -6.199219 2.066406 -8.230469 4.429688 -8.230469 C 5.503906 -8.230469 6.527344 -7.710938 7.042969 -6.527344 L 7.140625 -6.527344 L 6.695312 -8.265625 C 6.695312 -8.265625 6 -8.472656 4.703125 -8.472656 C 2.222656 -8.472656 0.496094 -6.527344 0.496094 -4.132812 Z M 0.496094 -4.132812 "/></g></g></g><g fill="#ffffff" fill-opacity="1"><g transform="translate(32.618035, 33.910172)"><g><path d="M 4.703125 0.207031 C 7.183594 0.207031 8.910156 -1.734375 8.910156 -4.132812 C 8.910156 -6.527344 7.183594 -8.472656 4.703125 -8.472656 C 2.222656 -8.472656 0.496094 -6.527344 0.496094 -4.132812 C 0.496094 -1.734375 2.222656 0.207031 4.703125 0.207031 Z M 1.363281 -4.132812 C 1.363281 -6.414062 2.734375 -8.265625 4.703125 -8.265625 C 6.667969 -8.265625 8.042969 -6.414062 8.042969 -4.132812 C 8.042969 -1.851562 6.667969 0 4.703125 0 C 2.734375 0 1.363281 -1.851562 1.363281 -4.132812 Z M 1.363281 -4.132812 "/></g></g></g><g fill="#ffffff" fill-opacity="1"><g transform="translate(44.12259, 33.910172)"><g><path d="M 1.835938 0 L 1.835938 -0.0976562 C 1.546875 -0.0976562 1.207031 -0.289062 1.207031 -0.769531 C 1.207031 -1.363281 1.875 -4.933594 2.386719 -7.117188 L 3.816406 -3.378906 C 4.199219 -2.378906 4.464844 -1.613281 4.585938 -1.296875 C 4.636719 -1.171875 4.695312 -1.089844 4.808594 -1.089844 C 5.074219 -1.089844 5.28125 -1.644531 5.851562 -1.703125 L 5.851562 -1.816406 L 5.679688 -1.816406 C 5.429688 -1.816406 5.296875 -1.949219 5.15625 -2.296875 C 5.140625 -2.339844 5.125 -2.378906 5.109375 -2.414062 C 5.867188 -4.230469 6.496094 -5.96875 7.171875 -7.835938 C 7.777344 -4.917969 8.390625 -1.421875 8.390625 -0.792969 C 8.390625 -0.3125 8.050781 -0.0976562 7.761719 -0.0976562 L 7.761719 0 L 10.289062 0 L 10.289062 -0.0976562 C 9.984375 -0.109375 9.546875 -0.414062 9.390625 -1.097656 C 8.867188 -3.378906 8.527344 -5.148438 8.066406 -7.726562 C 7.992188 -8.140625 8.464844 -8.164062 8.753906 -8.164062 L 8.753906 -8.265625 L 7.4375 -8.265625 C 7.207031 -8.265625 7.097656 -8.125 7.050781 -7.984375 C 6.398438 -6.125 5.753906 -4.421875 5.015625 -2.636719 C 4.28125 -4.421875 3.636719 -6.125 2.984375 -7.984375 C 2.933594 -8.125 2.828125 -8.265625 2.59375 -8.265625 L 1.371094 -8.265625 L 1.371094 -8.164062 C 1.660156 -8.164062 1.917969 -8.199219 2.117188 -7.742188 L 2.246094 -7.4375 C 1.734375 -5.15625 1.398438 -3.28125 0.902344 -1.097656 C 0.742188 -0.414062 0.304688 -0.109375 0 -0.0976562 L 0 0 Z M 1.835938 0 "/></g></g></g><g fill="#ffffff" fill-opacity="1"><g transform="translate(56.511479, 33.910172)"><g><path d="M 2.414062 0 L 2.414062 -0.0976562 C 1.785156 -0.0976562 1.785156 -0.808594 1.785156 -1.214844 L 1.785156 -4.875 L 2.828125 -4.875 C 4.421875 -4.875 5.3125 -4.957031 5.585938 -4.132812 L 5.6875 -4.132812 L 6.007812 -5.042969 L 1.785156 -5.042969 L 1.785156 -8.097656 L 4.925781 -8.097656 C 5.867188 -8.097656 6.679688 -7.753906 6.679688 -6.96875 L 6.777344 -6.96875 L 6.777344 -8.265625 L 0.332031 -8.265625 L 0.332031 -8.164062 C 0.957031 -8.164062 0.957031 -7.453125 0.957031 -7.050781 L 0.957031 -1.214844 C 0.957031 -0.808594 0.957031 -0.0976562 0.332031 -0.0976562 L 0.332031 0 Z M 2.414062 0 "/></g></g></g><g fill="#ffffff" fill-opacity="1"><g transform="translate(65.718422, 33.910172)"><g><path d="M 4.703125 0.207031 C 7.183594 0.207031 8.910156 -1.734375 8.910156 -4.132812 C 8.910156 -6.527344 7.183594 -8.472656 4.703125 -8.472656 C 2.222656 -8.472656 0.496094 -6.527344 0.496094 -4.132812 C 0.496094 -1.734375 2.222656 0.207031 4.703125 0.207031 Z M 1.363281 -4.132812 C 1.363281 -6.414062 2.734375 -8.265625 4.703125 -8.265625 C 6.667969 -8.265625 8.042969 -6.414062 8.042969 -4.132812 C 8.042969 -1.851562 6.667969 0 4.703125 0 C 2.734375 0 1.363281 -1.851562 1.363281 -4.132812 Z M 1.363281 -4.132812 "/></g></g></g><g fill="#ffffff" fill-opacity="1"><g transform="translate(77.22298, 33.910172)"><g><path d="M 0.957031 -7.050781 L 0.957031 -1.214844 C 0.957031 -0.808594 0.957031 -0.0976562 0.332031 -0.0976562 L 0.332031 0 L 2.414062 0 L 2.414062 -0.0976562 C 1.785156 -0.0976562 1.785156 -0.808594 1.785156 -1.214844 L 1.785156 -3.828125 L 2.992188 -3.828125 C 3.339844 -3.792969 3.472656 -3.601562 4.132812 -2.59375 C 4.679688 -1.761719 5.3125 -0.695312 5.3125 -0.453125 C 5.3125 -0.171875 5.066406 -0.0976562 4.917969 -0.0976562 L 4.917969 0 L 7.40625 0 L 7.40625 -0.0976562 C 7.132812 -0.0976562 6.894531 -0.214844 6.667969 -0.414062 C 6.304688 -0.734375 5.976562 -1.289062 5.527344 -1.933594 C 4.546875 -3.355469 4.496094 -3.734375 4.15625 -3.828125 L 4.613281 -3.828125 C 6.257812 -3.828125 7.035156 -4.941406 7.035156 -6.089844 C 7.035156 -7.191406 6.207031 -8.265625 4.628906 -8.265625 L 0.332031 -8.265625 L 0.332031 -8.164062 C 0.957031 -8.164062 0.957031 -7.453125 0.957031 -7.050781 Z M 4.007812 -8.097656 C 5.480469 -8.097656 6.214844 -7.109375 6.214844 -6.066406 C 6.214844 -4.984375 5.480469 -4 4.03125 -4 L 1.785156 -4 L 1.785156 -8.097656 Z M 4.007812 -8.097656 "/></g></g></g><g fill="#ffffff" fill-opacity="1"><g transform="translate(86.727461, 33.910172)"><g><path d="M 0.0976562 -6.96875 C 0.0976562 -7.753906 0.910156 -8.097656 1.851562 -8.097656 L 2.652344 -8.097656 L 2.652344 -1.214844 C 2.652344 -0.808594 2.652344 -0.0976562 2.023438 -0.0976562 L 2.023438 0 L 4.109375 0 L 4.109375 -0.0976562 C 3.480469 -0.0976562 3.480469 -0.808594 3.480469 -1.214844 L 3.480469 -8.097656 L 4.28125 -8.097656 C 5.222656 -8.097656 6.035156 -7.753906 6.035156 -6.96875 L 6.132812 -6.96875 L 6.132812 -8.265625 L 0 -8.265625 L 0 -6.96875 Z M 0.0976562 -6.96875 "/></g></g></g><g fill="#ffffff" fill-opacity="1"><g transform="translate(38.64821, 44.929797)"><g><path d="M 0.332031 0 L 6.199219 0 L 6.761719 -1.933594 L 6.660156 -1.933594 C 6.148438 -0.753906 5.007812 -0.164062 3.933594 -0.164062 L 1.429688 -0.164062 L 6.5625 -8.265625 L 0.96875 -8.265625 L 0.519531 -6.527344 L 0.621094 -6.527344 C 1.132812 -7.710938 2.15625 -8.097656 3.230469 -8.097656 L 5.480469 -8.097656 Z M 0.332031 0 "/></g></g></g><g fill="#ffffff" fill-opacity="1"><g transform="translate(47.838622, 44.929797)"><g><path d="M 4.703125 0.207031 C 7.183594 0.207031 8.910156 -1.734375 8.910156 -4.132812 C 8.910156 -6.527344 7.183594 -8.472656 4.703125 -8.472656 C 2.222656 -8.472656 0.496094 -6.527344 0.496094 -4.132812 C 0.496094 -1.734375 2.222656 0.207031 4.703125 0.207031 Z M 1.363281 -4.132812 C 1.363281 -6.414062 2.734375 -8.265625 4.703125 -8.265625 C 6.667969 -8.265625 8.042969 -6.414062 8.042969 -4.132812 C 8.042969 -1.851562 6.667969 0 4.703125 0 C 2.734375 0 1.363281 -1.851562 1.363281 -4.132812 Z M 1.363281 -4.132812 "/></g></g></g><g fill="#ffffff" fill-opacity="1"><g transform="translate(59.343178, 44.929797)"><g><path d="M 0.332031 -0.0976562 L 0.332031 0 L 2.785156 0 L 2.785156 -0.0976562 C 1.84375 -0.140625 1.445312 -0.636719 1.445312 -1.613281 L 1.445312 -7.59375 L 1.925781 -6.910156 L 6.191406 -0.191406 L 6.421875 0.117188 C 6.472656 0.183594 6.539062 0.207031 6.601562 0.207031 C 6.660156 0.207031 6.726562 0.183594 6.785156 0.140625 L 7.769531 -0.488281 L 7.710938 -0.554688 C 7.453125 -0.480469 7.222656 -0.546875 7 -0.710938 L 7 -7.050781 C 7 -7.453125 7 -8.164062 7.628906 -8.164062 L 7.628906 -8.265625 L 5.25 -8.265625 L 5.25 -8.164062 C 6.742188 -8.164062 6.792969 -6.601562 6.792969 -6.199219 L 6.792969 -0.894531 C 6.621094 -1.074219 6.429688 -1.289062 6.273438 -1.539062 L 2.148438 -8.058594 C 2.066406 -8.183594 1.910156 -8.265625 1.761719 -8.265625 L 0.421875 -8.265625 L 0.421875 -8.164062 C 0.769531 -8.164062 1 -8.148438 1.238281 -7.875 L 1.238281 -1.214844 C 1.238281 -0.808594 0.957031 -0.0976562 0.332031 -0.0976562 Z M 0.332031 -0.0976562 "/></g></g></g><g fill="#ffffff" fill-opacity="1"><g transform="translate(69.541899, 44.929797)"><g><path d="M 0.332031 -0.0976562 L 0.332031 0 L 6.4375 0 L 7.117188 -1.917969 L 7.015625 -1.917969 C 6.695312 -1.191406 5.652344 -0.164062 3.957031 -0.164062 L 1.785156 -0.164062 L 1.785156 -4.875 L 2.511719 -4.875 C 4.117188 -4.875 5 -4.957031 5.28125 -4.132812 L 5.378906 -4.132812 L 5.703125 -5.042969 L 1.785156 -5.042969 L 1.785156 -8.097656 L 3.894531 -8.097656 C 4.835938 -8.097656 6.171875 -8.058594 6.679688 -6.96875 L 6.777344 -6.96875 L 6.777344 -8.265625 L 0.332031 -8.265625 L 0.332031 -8.164062 C 0.957031 -8.164062 0.957031 -7.453125 0.957031 -7.050781 L 0.957031 -1.214844 C 0.957031 -0.808594 0.957031 -0.0976562 0.332031 -0.0976562 Z M 0.332031 -0.0976562 "/></g></g></g><g clip-path="url(#ca7df60d3a)"><path stroke-linecap="butt" transform="matrix(0.399557, 0, 0, 0.399557, 26.063296, 56.325954)" fill="none" stroke-linejoin="miter" d="M 2.989602 12.001136 L 2.989602 8.35452 L 6.694876 8.35452 L 6.694876 12.001136 L 7.535651 12.001136 L 7.535651 3.837801 L 6.694876 3.837801 L 6.694876 7.513746 L 2.989602 7.513746 L 2.989602 3.837801 L 2.148827 3.837801 L 2.148827 12.001136 Z M 24.859519 7.895027 C 24.859519 8.833566 24.517343 9.625459 23.872097 10.270704 C 23.207299 10.935503 22.415407 11.258126 21.49642 11.258126 C 20.567658 11.258126 19.775765 10.935503 19.13052 10.270704 C 18.475498 9.625459 18.143098 8.833566 18.143098 7.895027 C 18.143098 6.985818 18.475498 6.193925 19.13052 5.529127 C 19.775765 4.883881 20.567658 4.551482 21.49642 4.551482 C 22.415407 4.551482 23.207299 4.883881 23.872097 5.529127 C 24.517343 6.193925 24.859519 6.985818 24.859519 7.895027 Z M 25.690517 7.895027 C 25.690517 7.318217 25.5732 6.780512 25.358118 6.26236 C 25.143036 5.763761 24.839966 5.314045 24.458684 4.932763 C 24.077403 4.561258 23.627686 4.258188 23.129087 4.043106 C 22.610936 3.828024 22.073231 3.710707 21.49642 3.710707 C 20.91961 3.710707 20.362352 3.828024 19.863753 4.043106 C 19.355378 4.258188 18.915438 4.561258 18.534156 4.932763 C 18.143098 5.314045 17.849805 5.763761 17.634723 6.26236 C 17.409865 6.780512 17.302324 7.318217 17.302324 7.895027 C 17.302324 8.471838 17.409865 9.019319 17.634723 9.527694 C 17.849805 10.045846 18.143098 10.485786 18.534156 10.876844 C 18.915438 11.258126 19.355378 11.551419 19.863753 11.776278 C 20.362352 11.99136 20.91961 12.0989 21.49642 12.0989 C 22.073231 12.0989 22.610936 11.99136 23.129087 11.776278 C 23.627686 11.551419 24.077403 11.258126 24.458684 10.876844 C 24.839966 10.485786 25.143036 10.045846 25.358118 9.527694 C 25.5732 9.019319 25.690517 8.471838 25.690517 7.895027 Z M 34.802168 4.600364 L 36.786787 4.600364 L 36.786787 11.971807 L 37.617785 11.971807 L 37.617785 4.600364 L 39.602404 4.600364 L 39.602404 3.818248 L 34.802168 3.818248 Z M 53.915126 12.001136 L 53.915126 11.21902 L 49.906782 11.21902 L 49.906782 8.315415 L 53.797808 8.315415 L 53.797808 7.523522 L 49.906782 7.523522 L 49.906782 4.619917 L 53.915126 4.619917 L 53.915126 3.837801 L 49.066007 3.837801 L 49.066007 12.001136 Z M 64.884302 11.160361 L 64.884302 3.837801 L 64.043527 3.837801 L 64.043527 12.001136 L 67.797684 12.001136 L 67.797684 11.160361 Z M 79.529423 8.158991 C 80.585279 8.413179 81.29896 8.68692 81.690018 8.999766 C 81.953982 9.214848 82.081076 9.488589 82.081076 9.830764 C 82.081076 10.163164 82.012641 10.436904 81.865994 10.632433 C 81.504266 11.131032 80.85902 11.38522 79.94981 11.38522 C 78.669095 11.38522 77.955414 10.955056 77.798991 10.094728 L 76.81157 10.094728 C 77.104863 11.473208 78.141167 12.157559 79.94981 12.157559 C 80.751479 12.157559 81.416278 11.99136 81.963759 11.629631 C 82.609004 11.209244 82.95118 10.583551 82.95118 9.772106 C 82.95118 9.097531 82.677439 8.579379 82.149511 8.21765 C 81.778006 7.953686 81.181643 7.719051 80.350645 7.503969 C 79.50987 7.279111 78.972165 7.103135 78.717978 6.976041 C 78.170496 6.692524 77.896756 6.311243 77.906532 5.802867 C 77.906532 5.538903 77.955414 5.314045 78.072732 5.147845 C 78.385578 4.678576 78.942836 4.443941 79.734728 4.443941 C 80.849243 4.443941 81.484713 4.795893 81.650912 5.499797 L 82.560122 5.499797 C 82.257052 4.316847 81.318513 3.720483 79.734728 3.720483 C 79.011271 3.720483 78.375802 3.916012 77.847874 4.297294 C 77.300392 4.678576 77.026652 5.24561 77.026652 6.008173 C 77.026652 7.054253 77.867426 7.77771 79.529423 8.158991 Z M 106.307117 7.855922 L 108.096207 10.153387 C 107.97889 10.270704 107.851796 10.407575 107.705149 10.534669 C 107.177221 11.043044 106.678622 11.277679 106.248458 11.277679 C 105.847624 11.277679 105.485895 11.121256 105.192602 10.798633 C 104.909085 10.485786 104.762438 10.124058 104.762438 9.723223 C 104.762438 9.381048 104.957967 9.019319 105.349025 8.628261 C 105.534778 8.452285 105.847624 8.198097 106.307117 7.855922 Z M 106.238682 6.526324 C 105.876953 6.154819 105.710754 5.802867 105.710754 5.450915 C 105.710754 5.098963 105.808518 4.844775 106.013824 4.678576 C 106.199576 4.522152 106.434211 4.453717 106.668846 4.463494 C 106.913257 4.47327 107.138115 4.561258 107.343421 4.727458 C 107.53895 4.893657 107.646491 5.138069 107.646491 5.421586 C 107.646491 5.724656 107.50962 5.998396 107.255433 6.252584 C 107.138115 6.369901 107.020798 6.467666 106.883928 6.56543 C 106.756834 6.663195 106.639516 6.741406 106.512423 6.829394 C 106.414658 6.73163 106.336447 6.624089 106.238682 6.526324 Z M 110.295908 8.82379 L 109.611557 8.364297 L 109.152064 8.941107 C 108.995641 9.136636 108.839218 9.322389 108.682794 9.517918 L 107.011022 7.367099 C 107.147892 7.249782 107.314091 7.132464 107.490068 6.985818 C 108.11576 6.467666 108.41883 5.939737 108.41883 5.411809 C 108.41883 4.922987 108.252631 4.512376 107.920231 4.189753 C 107.597608 3.876907 107.186998 3.720483 106.678622 3.720483 C 106.150694 3.720483 105.72053 3.886683 105.407684 4.228859 C 105.085061 4.561258 104.928638 4.981645 104.928638 5.480244 C 104.928638 5.98862 105.221931 6.575207 105.798742 7.240005 C 105.554331 7.415981 105.309919 7.582181 105.094837 7.748381 C 104.312722 8.315415 103.93144 8.999766 103.93144 9.781882 C 103.93144 10.466233 104.146522 11.023491 104.606015 11.482984 C 104.821097 11.698066 105.075285 11.854489 105.358802 11.971807 C 105.652095 12.0989 105.984494 12.147783 106.355999 12.147783 C 106.747057 12.147783 107.157668 12.001136 107.656267 11.68829 C 107.910455 11.541643 108.223301 11.267902 108.624136 10.857291 L 109.513793 12.020689 L 110.618531 12.001136 L 109.210723 10.163164 C 109.816862 9.449483 110.178591 8.98999 110.295908 8.82379 Z M 134.473067 8.158991 C 135.528924 8.413179 136.252381 8.68692 136.633663 8.999766 C 136.897627 9.214848 137.034497 9.488589 137.034497 9.830764 C 137.034497 10.163164 136.956285 10.436904 136.809639 10.632433 C 136.457687 11.131032 135.802664 11.38522 134.893455 11.38522 C 133.622516 11.38522 132.899059 10.955056 132.742636 10.094728 L 131.764991 10.094728 C 132.048508 11.473208 133.094588 12.157559 134.893455 12.157559 C 135.695124 12.157559 136.369699 11.99136 136.907403 11.629631 C 137.562425 11.209244 137.894825 10.583551 137.894825 9.772106 C 137.894825 9.097531 137.63086 8.579379 137.102932 8.21765 C 136.731427 7.953686 136.125287 7.719051 135.304066 7.503969 C 134.463291 7.279111 133.925586 7.103135 133.671399 6.976041 C 133.114141 6.692524 132.8404 6.311243 132.850177 5.802867 C 132.850177 5.538903 132.899059 5.314045 133.026153 5.147845 C 133.329223 4.678576 133.88648 4.443941 134.678373 4.443941 C 135.792888 4.443941 136.428357 4.795893 136.594557 5.499797 L 137.513543 5.499797 C 137.210473 4.316847 136.262158 3.720483 134.678373 3.720483 C 133.954916 3.720483 133.319446 3.916012 132.791518 4.297294 C 132.253813 4.678576 131.980073 5.24561 131.980073 6.008173 C 131.980073 7.054253 132.820847 7.77771 134.473067 8.158991 Z M 148.277414 7.953686 L 148.277414 4.63947 L 150.174045 4.63947 C 150.662867 4.63947 151.053925 4.795893 151.356995 5.098963 C 151.650289 5.411809 151.806712 5.793091 151.806712 6.272137 C 151.806712 6.770736 151.650289 7.161794 151.337442 7.484416 C 151.024596 7.797263 150.643314 7.953686 150.174045 7.953686 Z M 152.647486 6.301466 C 152.647486 5.578009 152.383522 4.991422 151.875147 4.522152 C 151.366772 4.072436 150.770408 3.837801 150.046951 3.837801 L 147.436639 3.837801 L 147.436639 12.001136 L 148.277414 12.001136 L 148.277414 8.774908 L 150.046951 8.774908 C 150.770408 8.774908 151.386324 8.540273 151.875147 8.090556 C 152.383522 7.61151 152.647486 7.015147 152.647486 6.301466 Z M 163.43091 8.999766 L 164.91693 5.24561 L 166.393174 8.999766 Z M 168.495111 12.001136 L 164.91693 3.270767 L 161.328973 12.001136 L 162.238183 12.001136 L 163.118064 9.781882 L 166.70602 9.781882 L 167.585901 12.001136 Z M 168.495111 12.001136 " stroke="#211717" stroke-width="0.9" stroke-opacity="1" stroke-miterlimit="4"/></g><g fill="#ffffff" fill-opacity="1"><g transform="translate(26.562742, 61.12064)"><g><path d="M 0.695312 0 L 0.695312 -1.457031 L 2.175781 -1.457031 L 2.175781 0 L 2.511719 0 L 2.511719 -3.261719 L 2.175781 -3.261719 L 2.175781 -1.792969 L 0.695312 -1.792969 L 0.695312 -3.261719 L 0.359375 -3.261719 L 0.359375 0 Z M 0.695312 0 "/></g></g></g><g fill="#ffffff" fill-opacity="1"><g transform="translate(32.76229, 61.12064)"><g><path d="M 3.230469 -1.640625 C 3.230469 -1.265625 3.097656 -0.949219 2.839844 -0.691406 C 2.574219 -0.425781 2.257812 -0.296875 1.890625 -0.296875 C 1.519531 -0.296875 1.203125 -0.425781 0.945312 -0.691406 C 0.679688 -0.949219 0.550781 -1.265625 0.550781 -1.640625 C 0.550781 -2.003906 0.679688 -2.320312 0.945312 -2.585938 C 1.203125 -2.84375 1.519531 -2.976562 1.890625 -2.976562 C 2.257812 -2.976562 2.574219 -2.84375 2.839844 -2.585938 C 3.097656 -2.320312 3.230469 -2.003906 3.230469 -1.640625 Z M 3.566406 -1.640625 C 3.566406 -1.871094 3.519531 -2.085938 3.433594 -2.292969 C 3.347656 -2.492188 3.226562 -2.671875 3.074219 -2.824219 C 2.921875 -2.972656 2.742188 -3.09375 2.542969 -3.179688 C 2.335938 -3.265625 2.121094 -3.3125 1.890625 -3.3125 C 1.660156 -3.3125 1.4375 -3.265625 1.238281 -3.179688 C 1.035156 -3.09375 0.859375 -2.972656 0.703125 -2.824219 C 0.550781 -2.671875 0.429688 -2.492188 0.34375 -2.292969 C 0.257812 -2.085938 0.214844 -1.871094 0.214844 -1.640625 C 0.214844 -1.410156 0.257812 -1.1875 0.34375 -0.988281 C 0.429688 -0.78125 0.550781 -0.605469 0.703125 -0.449219 C 0.859375 -0.296875 1.035156 -0.175781 1.238281 -0.0898438 C 1.4375 -0.00390625 1.660156 0.0390625 1.890625 0.0390625 C 2.121094 0.0390625 2.335938 -0.00390625 2.542969 -0.0898438 C 2.742188 -0.175781 2.921875 -0.296875 3.074219 -0.449219 C 3.226562 -0.605469 3.347656 -0.78125 3.433594 -0.988281 C 3.519531 -1.1875 3.566406 -1.410156 3.566406 -1.640625 Z M 3.566406 -1.640625 "/></g></g></g><g fill="#ffffff" fill-opacity="1"><g transform="translate(39.872834, 61.12064)"><g><path d="M 0.0976562 -2.957031 L 0.886719 -2.957031 L 0.886719 -0.0078125 L 1.222656 -0.0078125 L 1.222656 -2.957031 L 2.015625 -2.957031 L 2.015625 -3.269531 L 0.0976562 -3.269531 Z M 0.0976562 -2.957031 "/></g></g></g><g fill="#ffffff" fill-opacity="1"><g transform="translate(45.310025, 61.12064)"><g><path d="M 2.296875 0 L 2.296875 -0.3125 L 0.695312 -0.3125 L 0.695312 -1.472656 L 2.25 -1.472656 L 2.25 -1.789062 L 0.695312 -1.789062 L 0.695312 -2.949219 L 2.296875 -2.949219 L 2.296875 -3.261719 L 0.359375 -3.261719 L 0.359375 0 Z M 2.296875 0 "/></g></g></g><g fill="#ffffff" fill-opacity="1"><g transform="translate(51.293808, 61.12064)"><g><path d="M 0.695312 -0.335938 L 0.695312 -3.261719 L 0.359375 -3.261719 L 0.359375 0 L 1.859375 0 L 1.859375 -0.335938 Z M 0.695312 -0.335938 "/></g></g></g><g fill="#ffffff" fill-opacity="1"><g transform="translate(56.57757, 61.12064)"><g><path d="M 1.261719 -1.535156 C 1.683594 -1.433594 1.96875 -1.324219 2.125 -1.199219 C 2.230469 -1.113281 2.28125 -1.003906 2.28125 -0.867188 C 2.28125 -0.734375 2.253906 -0.625 2.195312 -0.546875 C 2.050781 -0.34375 1.792969 -0.246094 1.429688 -0.246094 C 0.921875 -0.246094 0.632812 -0.417969 0.570312 -0.761719 L 0.175781 -0.761719 C 0.292969 -0.210938 0.710938 0.0625 1.429688 0.0625 C 1.75 0.0625 2.019531 -0.00390625 2.234375 -0.148438 C 2.492188 -0.316406 2.628906 -0.566406 2.628906 -0.890625 C 2.628906 -1.160156 2.523438 -1.367188 2.3125 -1.511719 C 2.164062 -1.617188 1.921875 -1.710938 1.59375 -1.796875 C 1.257812 -1.882812 1.039062 -1.957031 0.941406 -2.007812 C 0.71875 -2.121094 0.609375 -2.273438 0.613281 -2.472656 C 0.613281 -2.578125 0.632812 -2.671875 0.679688 -2.738281 C 0.804688 -2.925781 1.027344 -3.019531 1.34375 -3.019531 C 1.789062 -3.019531 2.042969 -2.875 2.109375 -2.597656 L 2.472656 -2.597656 C 2.355469 -3.070312 1.976562 -3.308594 1.34375 -3.308594 C 1.054688 -3.308594 0.800781 -3.230469 0.589844 -3.078125 C 0.375 -2.925781 0.265625 -2.699219 0.265625 -2.390625 C 0.265625 -1.976562 0.597656 -1.6875 1.261719 -1.535156 Z M 1.261719 -1.535156 "/></g></g></g><g fill="#ffffff" fill-opacity="1"><g transform="translate(62.657251, 61.12064)"><g/></g></g><g fill="#ffffff" fill-opacity="1"><g transform="translate(67.279337, 61.12064)"><g><path d="M 1.261719 -1.652344 L 1.976562 -0.738281 C 1.925781 -0.691406 1.875 -0.636719 1.816406 -0.585938 C 1.605469 -0.382812 1.410156 -0.289062 1.238281 -0.289062 C 1.074219 -0.289062 0.929688 -0.351562 0.816406 -0.480469 C 0.699219 -0.605469 0.640625 -0.746094 0.640625 -0.910156 C 0.640625 -1.046875 0.71875 -1.1875 0.878906 -1.347656 C 0.949219 -1.417969 1.074219 -1.519531 1.261719 -1.652344 Z M 1.230469 -2.1875 C 1.089844 -2.335938 1.019531 -2.472656 1.019531 -2.617188 C 1.019531 -2.757812 1.058594 -2.859375 1.140625 -2.925781 C 1.21875 -2.988281 1.308594 -3.015625 1.40625 -3.011719 C 1.5 -3.007812 1.59375 -2.972656 1.671875 -2.90625 C 1.75 -2.839844 1.792969 -2.742188 1.792969 -2.628906 C 1.792969 -2.507812 1.742188 -2.398438 1.640625 -2.296875 C 1.59375 -2.25 1.542969 -2.210938 1.492188 -2.171875 C 1.4375 -2.132812 1.390625 -2.101562 1.34375 -2.066406 C 1.304688 -2.105469 1.269531 -2.148438 1.230469 -2.1875 Z M 2.851562 -1.269531 L 2.578125 -1.453125 L 2.398438 -1.222656 C 2.335938 -1.144531 2.273438 -1.070312 2.210938 -0.992188 L 1.539062 -1.851562 C 1.597656 -1.898438 1.664062 -1.945312 1.730469 -2.003906 C 1.980469 -2.210938 2.105469 -2.421875 2.105469 -2.632812 C 2.105469 -2.828125 2.039062 -2.992188 1.902344 -3.121094 C 1.773438 -3.246094 1.609375 -3.308594 1.410156 -3.308594 C 1.199219 -3.308594 1.027344 -3.242188 0.902344 -3.105469 C 0.773438 -2.972656 0.710938 -2.804688 0.710938 -2.601562 C 0.710938 -2.402344 0.824219 -2.167969 1.054688 -1.902344 C 0.957031 -1.832031 0.863281 -1.765625 0.777344 -1.699219 C 0.464844 -1.472656 0.3125 -1.199219 0.3125 -0.886719 C 0.3125 -0.613281 0.398438 -0.386719 0.582031 -0.207031 C 0.667969 -0.121094 0.765625 -0.0585938 0.882812 -0.0078125 C 0.996094 0.0390625 1.132812 0.0585938 1.28125 0.0585938 C 1.433594 0.0585938 1.601562 0 1.796875 -0.125 C 1.898438 -0.183594 2.023438 -0.292969 2.1875 -0.457031 L 2.542969 0.0078125 L 2.980469 0 L 2.421875 -0.734375 C 2.660156 -1.019531 2.804688 -1.203125 2.851562 -1.269531 Z M 2.851562 -1.269531 "/></g></g></g><g fill="#ffffff" fill-opacity="1"><g transform="translate(73.910409, 61.12064)"><g/></g></g><g fill="#ffffff" fill-opacity="1"><g transform="translate(78.532495, 61.12064)"><g><path d="M 1.261719 -1.535156 C 1.683594 -1.433594 1.96875 -1.324219 2.125 -1.199219 C 2.230469 -1.113281 2.28125 -1.003906 2.28125 -0.867188 C 2.28125 -0.734375 2.253906 -0.625 2.195312 -0.546875 C 2.050781 -0.34375 1.792969 -0.246094 1.429688 -0.246094 C 0.921875 -0.246094 0.632812 -0.417969 0.570312 -0.761719 L 0.175781 -0.761719 C 0.292969 -0.210938 0.710938 0.0625 1.429688 0.0625 C 1.75 0.0625 2.019531 -0.00390625 2.234375 -0.148438 C 2.492188 -0.316406 2.628906 -0.566406 2.628906 -0.890625 C 2.628906 -1.160156 2.523438 -1.367188 2.3125 -1.511719 C 2.164062 -1.617188 1.921875 -1.710938 1.59375 -1.796875 C 1.257812 -1.882812 1.039062 -1.957031 0.941406 -2.007812 C 0.71875 -2.121094 0.609375 -2.273438 0.613281 -2.472656 C 0.613281 -2.578125 0.632812 -2.671875 0.679688 -2.738281 C 0.804688 -2.925781 1.027344 -3.019531 1.34375 -3.019531 C 1.789062 -3.019531 2.042969 -2.875 2.109375 -2.597656 L 2.472656 -2.597656 C 2.355469 -3.070312 1.976562 -3.308594 1.34375 -3.308594 C 1.054688 -3.308594 0.800781 -3.230469 0.589844 -3.078125 C 0.375 -2.925781 0.265625 -2.699219 0.265625 -2.390625 C 0.265625 -1.976562 0.597656 -1.6875 1.261719 -1.535156 Z M 1.261719 -1.535156 "/></g></g></g><g fill="#ffffff" fill-opacity="1"><g transform="translate(84.612176, 61.12064)"><g><path d="M 0.695312 -1.617188 L 0.695312 -2.9375 L 1.453125 -2.9375 C 1.648438 -2.9375 1.808594 -2.875 1.925781 -2.757812 C 2.042969 -2.632812 2.105469 -2.480469 2.105469 -2.285156 C 2.105469 -2.089844 2.042969 -1.933594 1.917969 -1.804688 C 1.792969 -1.679688 1.640625 -1.617188 1.453125 -1.617188 Z M 2.441406 -2.277344 C 2.441406 -2.566406 2.335938 -2.800781 2.132812 -2.988281 C 1.933594 -3.167969 1.691406 -3.261719 1.40625 -3.261719 L 0.359375 -3.261719 L 0.359375 0 L 0.695312 0 L 0.695312 -1.289062 L 1.40625 -1.289062 C 1.691406 -1.289062 1.9375 -1.382812 2.132812 -1.5625 C 2.335938 -1.753906 2.441406 -1.988281 2.441406 -2.277344 Z M 2.441406 -2.277344 "/></g></g></g><g fill="#ffffff" fill-opacity="1"><g transform="translate(90.476093, 61.12064)"><g><path d="M 0.886719 -1.199219 L 1.480469 -2.699219 L 2.070312 -1.199219 Z M 2.910156 0 L 1.480469 -3.484375 L 0.046875 0 L 0.414062 0 L 0.761719 -0.886719 L 2.195312 -0.886719 L 2.546875 0 Z M 2.910156 0 "/></g></g></g></svg>